<?xml version="1.0" encoding="utf-8"?><svg xmlns="http://www.w3.org/2000/svg" xmlns:xlink="http://www.w3.org/1999/xlink"><symbol viewBox="0 0 284.929 284.929" id="angle-arrow-down" xmlns="http://www.w3.org/2000/svg"><path d="M282.082 76.511l-14.274-14.273c-1.902-1.906-4.093-2.856-6.57-2.856-2.471 0-4.661.95-6.563 2.856L142.466 174.441 30.262 62.241c-1.903-1.906-4.093-2.856-6.567-2.856-2.475 0-4.665.95-6.567 2.856L2.856 76.515C.95 78.417 0 80.607 0 83.082c0 2.473.953 4.663 2.856 6.565l133.043 133.046c1.902 1.903 4.093 2.854 6.567 2.854s4.661-.951 6.562-2.854L282.082 89.647c1.902-1.903 2.847-4.093 2.847-6.565 0-2.475-.945-4.665-2.847-6.571z"/></symbol><symbol viewBox="0 0 292.362 292.362" id="arrow-down" xmlns="http://www.w3.org/2000/svg"><path d="M286.935 69.377c-3.614-3.617-7.898-5.424-12.848-5.424H18.274c-4.952 0-9.233 1.807-12.85 5.424C1.807 72.998 0 77.279 0 82.228c0 4.948 1.807 9.229 5.424 12.847l127.907 127.907c3.621 3.617 7.902 5.428 12.85 5.428s9.233-1.811 12.847-5.428L286.935 95.074c3.613-3.617 5.427-7.898 5.427-12.847 0-4.948-1.814-9.229-5.427-12.85z"/></symbol><symbol viewBox="0 0 493.4 219.3" id="arrow-left" xmlns="http://www.w3.org/2000/svg"><path d="M484.2 73.2H127.9v-64c0-3.8-1.8-6.6-5.4-8.3-3.6-1.5-7-1-10 1.7L2.9 103.7C1 105.6 0 107.9 0 110.5c0 2.6 1 4.8 2.9 6.7l109.6 99.9c3 2.5 6.4 2.9 10 1.4s5.4-4.3 5.4-8.3v-64h356.4c2.7 0 4.9-.9 6.6-2.6 1.6-1.6 2.5-3.8 2.5-6.4V73.3"/></symbol><symbol viewBox="0 0 493.4 219.3" id="arrow-right" xmlns="http://www.w3.org/2000/svg"><path d="M490.5 102.2L380.9 2.3c-3-2.5-6.4-2.9-10-1.4-3.6 1.5-5.4 4.3-5.4 8.3v64H9.1c-2.7 0-4.9.9-6.6 2.6C.9 77.4 0 79.6 0 82.2V137c0 2.7.9 4.9 2.6 6.6 1.7 1.7 3.9 2.6 6.6 2.6h356.3v64c0 3.8 1.8 6.6 5.4 8.3 3.6 1.5 7 1 10-1.7l109.6-101.1c1.9-1.9 2.9-4.2 2.9-6.8 0-2.6-1-4.8-2.9-6.7z"/></symbol><symbol id="bookmark-icon" viewBox="0 0 8 14" xmlns="http://www.w3.org/2000/svg"><title>bookmark icon</title><g id="eSymbols"><g id="eShare-bar-light" transform="translate(-97 -3)"><g id="eIcons" transform="translate(51 3)"><path id="ebookmark-icon" class="est0" d="M46.9 13.9L50 11l3.1 2.9c.1.1.2.1.4.1h.2c.2-.1.3-.3.3-.5V.5c0-.3-.2-.5-.5-.5h-6.9c-.4 0-.6.2-.6.5v13c0 .2.1.4.3.5.2 0 .5 0 .6-.1zM48 2h4v8l-1.7-1.7c-.1-.1-.2-.1-.3-.1s-.2 0-.3.1L48 10V2z"/></g></g></g></symbol><symbol viewBox="0 0 97.619 97.618" id="checkmark" xmlns="http://www.w3.org/2000/svg"><path d="M96.939 17.358L83.968 5.959a1.99 1.99 0 0 0-1.449-.494 2.002 2.002 0 0 0-1.373.677L34.1 59.688 17.372 37.547a1.995 1.995 0 0 0-1.319-.773 1.972 1.972 0 0 0-1.481.385L.794 47.567a2 2 0 0 0-.39 2.801l30.974 40.996c.362.479.922.771 1.522.793h.073c.574 0 1.122-.246 1.503-.68L97.12 20.18a1.998 1.998 0 0 0-.181-2.822z"/></symbol><symbol viewBox="0 0 95.939 95.939" id="cross" xmlns="http://www.w3.org/2000/svg"><path d="M62.819 47.97l32.533-32.534a2 2 0 0 0 0-2.828L83.333.586a2.002 2.002 0 0 0-2.828 0L47.97 33.121 15.435.586c-.75-.75-2.078-.75-2.828 0L.587 12.608a2 2 0 0 0 0 2.828L33.121 47.97.587 80.504a2 2 0 0 0 0 2.828l12.02 12.021a2 2 0 0 0 2.828 0L47.97 62.818l32.535 32.535a2 2 0 0 0 2.828 0l12.02-12.021a2 2 0 0 0 0-2.828L62.819 47.97z"/></symbol><symbol viewBox="-1187 1679.4 8 14" id="facebook-logo" xmlns="http://www.w3.org/2000/svg"><path d="M-1179.4 1679.4h-1.9c-2.1 0-3.5 1.4-3.5 3.4v1.6h-1.9c-.2 0-.3.1-.3.3v2.3c0 .2.1.3.3.3h1.9v5.8c0 .2.1.3.3.3h2.5c.2 0 .3-.1.3-.3v-5.8h2.2c.2 0 .3-.1.3-.3v-2.3c0-.1 0-.1-.1-.2s-.1-.1-.2-.1h-2.2v-1.3c0-.6.2-1 1-1h1.3c.2 0 .3-.1.3-.3v-2.1c0-.2-.2-.3-.3-.3z"/></symbol><symbol viewBox="-1180 1675.4 22 21" id="github-logo" xmlns="http://www.w3.org/2000/svg"><path d="M-1163.5 1676.8c-1.7-1-3.5-1.4-5.5-1.4s-3.8.5-5.5 1.4c-1.7 1-3 2.3-4 3.9s-1.5 3.4-1.5 5.4c0 2.3.7 4.4 2.1 6.3 1.4 1.9 3.2 3.2 5.4 3.9.3 0 .4 0 .6-.1.1-.1.2-.3.2-.4v-2l-.3.1c-.2 0-.5.1-.8 0-.3 0-.7 0-1-.1-.3-.1-.7-.2-1-.4-.3-.2-.5-.5-.6-.9l-.1-.3c-.1-.2-.2-.5-.5-.7-.2-.3-.4-.4-.6-.5l-.1-.1c-.1 0-.1-.1-.2-.2s-.1-.1-.1-.2 0-.1.1-.2c.1 0 .2-.1.4-.1h.3c.2 0 .4.1.7.3.3.2.5.4.7.7.2.4.5.7.8.9.3.2.6.3.9.3s.6 0 .8-.1c.2 0 .4-.1.6-.2.1-.6.3-1.1.7-1.4-.5-.1-1-.1-1.5-.3-.4-.1-.9-.3-1.3-.5-.5-.3-.8-.6-1.2-.9-.3-.4-.6-.9-.8-1.5-.2-.6-.3-1.3-.3-2.1 0-1.1.4-2.1 1.1-2.9-.4-.8-.3-1.8.1-2.9.3-.1.7 0 1.2.2s.9.4 1.2.5c.3.1.5.3.6.4.9-.2 1.8-.4 2.7-.4s1.9.1 2.7.4l.5-.3c.4-.2.8-.4 1.3-.6.5-.2.9-.2 1.2-.2.4 1.1.5 2 .1 2.9.8.8 1.1 1.8 1.1 2.9 0 .8-.1 1.5-.3 2.1-.2.6-.4 1.1-.8 1.5-.3.4-.7.7-1.2.9-.5.3-.9.4-1.3.5-.4.1-.9.2-1.5.3.5.4.7 1.1.7 2v2.9c0 .2.1.3.2.4.1.1.3.1.6.1 2.2-.7 4-2 5.4-3.9 1.4-1.9 2.1-4 2.1-6.3 0-1.9-.5-3.7-1.5-5.4-.6-1.4-1.9-2.7-3.6-3.7z"/></symbol><symbol viewBox="0 0 300 300" id="grid" xmlns="http://www.w3.org/2000/svg"><path d="M150 0C67.2 0 0 67.2 0 150s67.2 150 150 150 150-67.2 150-150S232.8 0 150 0zm-27.2 205c0 5-4.1 9.1-9.1 9.1H95.5c-5 0-9.1-4.1-9.1-9.1v-18.2c0-5 4.1-9.1 9.1-9.1h18.2c5 0 9.1 4.1 9.1 9.1V205zm0-45.4c0 5-4.1 9.1-9.1 9.1H95.5c-5 0-9.1-4.1-9.1-9.1v-18.2c0-5 4.1-9.1 9.1-9.1h18.2c5 0 9.1 4.1 9.1 9.1v18.2zm0-45.4c0 5-4.1 9.1-9.1 9.1H95.5c-5 0-9.1-4.1-9.1-9.1V96c0-5 4.1-9.1 9.1-9.1h18.2c5 0 9.1 4.1 9.1 9.1v18.2zm45.4 90.8c0 5-4.1 9.1-9.1 9.1h-18.2c-5 0-9.1-4.1-9.1-9.1v-18.2c0-5 4.1-9.1 9.1-9.1h18.2c5 0 9.1 4.1 9.1 9.1V205zm0-45.4c0 5-4.1 9.1-9.1 9.1h-18.2c-5 0-9.1-4.1-9.1-9.1v-18.2c0-5 4.1-9.1 9.1-9.1h18.2c5 0 9.1 4.1 9.1 9.1v18.2zm0-45.4c0 5-4.1 9.1-9.1 9.1h-18.2c-5 0-9.1-4.1-9.1-9.1V96c0-5 4.1-9.1 9.1-9.1h18.2c5 0 9.1 4.1 9.1 9.1v18.2zm45.4 90.8c0 5-4.1 9.1-9.1 9.1h-18.2c-5 0-9.1-4.1-9.1-9.1v-18.2c0-5 4.1-9.1 9.1-9.1h18.2c5 0 9.1 4.1 9.1 9.1V205zm0-45.4c0 5-4.1 9.1-9.1 9.1h-18.2c-5 0-9.1-4.1-9.1-9.1v-18.2c0-5 4.1-9.1 9.1-9.1h18.2c5 0 9.1 4.1 9.1 9.1v18.2zm0-45.4c0 5-4.1 9.1-9.1 9.1h-18.2c-5 0-9.1-4.1-9.1-9.1V96c0-5 4.1-9.1 9.1-9.1h18.2c5 0 9.1 4.1 9.1 9.1v18.2z"/></symbol><symbol viewBox="-1184 1678.4 15 15" id="instagram-logo" xmlns="http://www.w3.org/2000/svg"><path d="M-1174 1685.9c0-.7-.2-1.3-.7-1.8s-1.1-.7-1.8-.7-1.3.2-1.8.7-.7 1.1-.7 1.8.2 1.3.7 1.8 1.1.7 1.8.7 1.3-.2 1.8-.7.7-1.1.7-1.8zm1.3 0c0 1.1-.4 2-1.1 2.7s-1.7 1.1-2.7 1.1-2-.4-2.7-1.1-1.1-1.7-1.1-2.7.4-2 1.1-2.7 1.7-1.1 2.7-1.1 2 .4 2.7 1.1 1.1 1.6 1.1 2.7zm1.1-4c0 .2-.1.5-.3.6s-.4.3-.6.3-.5-.1-.6-.3-.3-.4-.3-.6.1-.5.3-.6.4-.3.6-.3.5.1.6.3.3.3.3.6zm-4.9-2.2h-2.6c-.4 0-.7 0-1 .1s-.5.1-.7.2c-.3.1-.6.3-.9.6s-.4.5-.6.9c-.1.2-.1.4-.2.7s-.1.6-.1 1v5.2c0 .4 0 .7.1 1s.1.5.2.7c.1.3.3.6.6.9s.5.4.9.6c.2.1.4.1.7.2s.6.1 1 .1h5.2c.4 0 .7 0 1-.1s.5-.1.7-.2c.3-.1.6-.3.9-.6s.4-.5.6-.9c.1-.2.1-.4.2-.7s.1-.6.1-1v-5.2c0-.4 0-.7-.1-1s-.1-.5-.2-.7c-.1-.3-.3-.6-.6-.9s-.5-.4-.9-.6c-.2-.1-.4-.1-.7-.2s-.6-.1-1-.1h-2.6zm7.5 6.2v3.1c-.1 1.4-.5 2.4-1.2 3.1s-1.8 1.1-3.1 1.2h-6.2c-1.4-.1-2.4-.5-3.1-1.2s-1.1-1.8-1.2-3.1v-6.2c.1-1.4.5-2.4 1.2-3.1s1.8-1.1 3.1-1.2h6.2c1.4.1 2.4.5 3.1 1.2s1.1 1.8 1.2 3.1v3.1z"/></symbol><symbol viewBox="0 0 430.117 430.117" id="linkedin-logo" xmlns="http://www.w3.org/2000/svg"><path d="M430.117 261.543V420.56h-92.188V272.193c0-37.271-13.334-62.707-46.703-62.707-25.473 0-40.632 17.142-47.301 33.724-2.432 5.928-3.058 14.179-3.058 22.477V420.56h-92.219s1.242-251.285 0-277.32h92.21v39.309c-.187.294-.43.611-.606.896h.606v-.896c12.251-18.869 34.13-45.824 83.102-45.824 60.673-.001 106.157 39.636 106.157 124.818zM52.183 9.558C20.635 9.558 0 30.251 0 57.463c0 26.619 20.038 47.94 50.959 47.94h.616c32.159 0 52.159-21.317 52.159-47.94-.606-27.212-20-47.905-51.551-47.905zM5.477 420.56h92.184V143.24H5.477v277.32z"/></symbol><symbol id="mail" viewBox="0 0 14 10" xmlns="http://www.w3.org/2000/svg"><path class="mst0" d="M7 7L5.3 5.5l-5 4.2c.2.2.4.3.7.3h12c.3 0 .5-.1.7-.3l-5-4.2L7 7z"/><path class="mst0" d="M13.7.3c-.2-.2-.4-.3-.7-.3H1C.7 0 .5.1.3.3L7 6 13.7.3zM0 .9v8.3l4.8-4.1zm9.2 4.2L14 9.2V.9z"/></symbol><symbol viewBox="0 0 300 300" id="map" xmlns="http://www.w3.org/2000/svg"><path d="M150 0C67.2 0 0 67.2 0 150s67.2 150 150 150 150-67.2 150-150S232.8 0 150 0zm2.6 238c-.7.7-1.6 1-2.6 1s-1.8-.3-2.6-1c-2.6-2.5-64.5-61.3-64.5-110.8 0-37 30.1-67.1 67.1-67.1s67.1 30.1 67.1 67.1c0 49.5-61.9 108.3-64.5 110.8z"/><path d="M150 89.9c-20.5 0-37.3 16.7-37.3 37.3s16.7 37.3 37.3 37.3 37.3-16.7 37.3-37.3-16.8-37.3-37.3-37.3z"/></symbol><symbol viewBox="-1180 1675.4 22 22" id="our-umbraco-logo" xmlns="http://www.w3.org/2000/svg"><circle fill="#00BEC1" cx="-1169" cy="1686.4" r="11"/><path fill="none" stroke="#FFF" stroke-width="1.63" d="M-1169 1691.7c-.5 0-5.7-2.7-5.7-6.6 0-1.3 1-3.1 3-3.1 1.7 0 2.5 1.6 2.6 1.8.1-.2 1-1.8 2.7-1.8 2 0 3 1.8 3 3.1.1 3.9-5.2 6.6-5.6 6.6z"/></symbol><symbol id="play" viewBox="0 0 7.5 11" xmlns="http://www.w3.org/2000/svg"><path class="pst0" d="M0 0v11l7.5-5.5z" id="pTriangle"/></symbol><symbol viewBox="0 0 21 19" id="quote" xmlns="http://www.w3.org/2000/svg"><title>“</title><text transform="translate(-12 -13)" fill="#EBEBEB" fill-rule="evenodd" font-size="64" font-family="Lato-Bold, Lato" font-weight="bold"><tspan x="9.488" y="63">“</tspan></text></symbol><symbol viewBox="0 0 451 451" id="search" xmlns="http://www.w3.org/2000/svg"><path d="M447.05 428l-109.6-109.6c29.4-33.8 47.2-77.9 47.2-126.1C384.65 86.2 298.35 0 192.35 0 86.25 0 .05 86.3.05 192.3s86.3 192.3 192.3 192.3c48.2 0 92.3-17.8 126.1-47.2L428.05 447c2.6 2.6 6.1 4 9.5 4s6.9-1.3 9.5-4c5.2-5.2 5.2-13.8 0-19zM26.95 192.3c0-91.2 74.2-165.3 165.3-165.3 91.2 0 165.3 74.2 165.3 165.3s-74.1 165.4-165.3 165.4c-91.1 0-165.3-74.2-165.3-165.4z"/></symbol><symbol preserveAspectRatio="XMin" viewBox="0 0 1439 400" id="sway-mask" xmlns="http://www.w3.org/2000/svg"><path d="M-1 0l4.524 400s344.668-28.481 755.452-121.123C1169.759 186.235 1438.939 0 1438.939 0H-1z" fill="#FFF" fill-rule="evenodd"/></symbol><symbol viewBox="-1183 1679.4 17 14" id="twitter-logo" xmlns="http://www.w3.org/2000/svg"><path d="M-1166 1681c-.6.3-1.3.5-2 .6.7-.4 1.3-1.1 1.5-2-.7.4-1.4.7-2.2.9-.6-.7-1.5-1.1-2.5-1.1-1.9 0-3.5 1.6-3.5 3.5 0 .3 0 .5.1.8-2.9-.1-5.5-1.6-7.2-3.7-.3.5-.5 1.1-.5 1.8 0 1.2.6 2.3 1.6 2.9-.6 0-1.1-.2-1.6-.4 0 1.7 1.2 3.1 2.8 3.5-.3.1-.6.1-.9.1-.2 0-.4 0-.7-.1.4 1.4 1.7 2.4 3.3 2.5-1.2.9-2.7 1.5-4.3 1.5h-.8c1.5 1 3.4 1.6 5.3 1.6 6.4 0 9.9-5.4 9.9-10.1v-.5c.6-.4 1.2-1 1.7-1.8z"/></symbol><symbol viewBox="-1116 1664.4 151 44" id="umbraco-logo" xmlns="http://www.w3.org/2000/svg"><path d="M-1116 1686.4c0-12.2 10.1-22 22.6-22 12.5 0 22.6 9.8 22.6 22s-10.1 22-22.6 22c-12.5 0-22.6-9.8-22.6-22zm22.1 7.5c-2.2 0-4-.2-5.2-.4-1.4-.3-2.3-1.1-2.9-2.2-.5-1.1-.8-2.9-.7-5.3 0-1.3.1-2.5.2-3.7.2-1.2.3-2.2.5-3l.2-.8v-.1c0-.2-.2-.4-.4-.4l-2.9-.4h-.1c-.2 0-.4.2-.5.3 0 .2-.1.3-.2.7-.2.9-.3 1.7-.5 2.8-.2 1.2-.3 2.5-.3 3.9 0 0-.1.3 0 2.7s.5 4.3 1.3 5.8c.8 1.4 2.1 2.5 4 3.1 1.9.6 4.5.9 7.8.9h.4c3.3 0 5.9-.3 7.8-.9 1.9-.6 3.2-1.7 4-3.1.8-1.5 1.2-3.4 1.3-5.8s0-2.7 0-2.7c0-1.4-.2-2.7-.3-3.9-.2-1.2-.3-2-.5-2.8-.1-.4-.1-.6-.2-.7 0-.2-.2-.3-.5-.3h-.1l-2.9.4c-.2 0-.4.2-.4.4v.1l.2.8c.2.8.3 1.8.5 3s.2 2.4.2 3.7c0 2.4-.2 4.1-.7 5.3-.5 1.1-1.5 1.9-2.9 2.2-1.2.3-3 .4-5.2.4h-1zm117.7-5.5c0-3.8 1.1-6.5 5.5-6.5 4.5 0 5.5 2.7 5.5 6.5s-1.1 6.5-5.5 6.5-5.5-2.6-5.5-6.5zm8.2 0c0-2.7-.3-4.2-2.7-4.2-2.4 0-2.7 1.5-2.7 4.2s.4 4.2 2.7 4.2c2.4 0 2.7-1.5 2.7-4.2zm-85 6c.1.1.2.2.3.2h1c.2 0 .4-.2.4-.4v-11.7c0-.2-.2-.4-.4-.4h-2.1c-.2 0-.4.2-.4.4v9.3c-.7.4-1.6.7-2.9.7-1.3 0-2-.6-2-1.9v-8.2c0-.2-.2-.4-.4-.4h-2.1c-.2 0-.4.2-.4.4v8.4c0 2.4 1.1 4 4.3 4 1.4 0 2.8-.4 4-1.3l.7.9zm23.3-8.6c0-2.4-1.2-4-4.1-4-1.4 0-2.8.5-4 1.2-.5-.8-1.5-1.2-3.2-1.2-1.2 0-2.7.5-3.8 1.3l-.4-.8c-.1-.1-.2-.2-.3-.2h-1c-.2 0-.4.2-.4.4v11.7c0 .2.2.4.4.4h2.1c.2 0 .4-.2.4-.4v-9.3c.7-.4 1.5-.7 2.6-.7s1.8.4 1.8 1.6v8.4c0 .2.2.4.4.4h2.1c.2 0 .4-.2.4-.4v-9.3c.6-.4 1.4-.7 2.6-.7 1.1 0 1.8.4 1.8 1.6v8.4c0 .2.2.4.4.4h2.1c.2 0 .4-.2.4-.4l-.3-8.4zm6.4 7.8c1.1.8 2.4 1.3 4 1.3 3.6 0 5-2.4 5-6.5s-1.4-6.5-5-6.5c-1.2 0-2.4.4-3.3 1v-3.8c0-.2-.2-.4-.4-.4h-2.1c-.2 0-.4.2-.4.4v15.2c0 .2.2.4.4.4h1c.1 0 .2-.1.3-.2l.5-.9zm3.4-1c-1.3 0-2.2-.5-2.7-.7v-6.9c.5-.3 1.4-.7 2.7-.7 2.4 0 2.8 1.9 2.8 4.2 0 2.2-.4 4.1-2.8 4.1zm16-8.3h-1c-1.5 0-2.6.3-3.2.7v9.2c0 .2-.2.4-.4.4h-2.1c-.2 0-.4-.2-.4-.4v-11.7c0-.2.2-.4.4-.4h1c.1 0 .2.1.3.2l.4.8c.9-.7 2.3-1.3 3.9-1.3.4 0 .7 0 1 .1.2 0 .3.3.3.5v1.5c.2.3 0 .4-.2.4zm10.4 9.3c-1 .8-2.4 1.3-3.8 1.3-3.2 0-4.3-2-4.3-4 0-2.7 1.7-3.8 4.6-4.1l2.8-.2v-.6c0-1.3-.6-1.8-2.4-1.8-1.4 0-2.5.2-3.4.6h-.1c-.2 0-.4-.2-.4-.4v-1.6c0-.2.1-.3.2-.3 1-.4 2.5-.6 3.8-.6 4.1 0 5 1.8 5 4.5v8c0 .2-.2.4-.4.4h-1c-.1 0-.2-.1-.3-.2l-.3-1zm-3.3-4.7c-1.2.2-2 .6-2 1.9 0 .9.4 1.9 1.9 1.9 1.1 0 1.9-.3 2.7-.8v-3.2l-2.6.2zm17.5 3.2h.1c.2 0 .4.2.4.4v1.7c0 .2-.1.3-.2.3-.9.4-2 .5-3.2.5-4.4 0-5.8-2.6-5.8-6.5s1.4-6.5 5.8-6.5c1.2 0 2.3.2 3.2.5.1 0 .2.2.2.3v1.6c0 .2-.2.4-.4.4h-.1c-.7-.2-1.6-.4-2.8-.4-2.4 0-3.1 1.7-3.1 4.1 0 2.4.7 4 3.1 4 1.3 0 2.1-.2 2.8-.4z"/></symbol><symbol viewBox="-1180 1675.4 22 22" id="umbraco-tv-logo" xmlns="http://www.w3.org/2000/svg"><circle fill="#00BEC1" cx="-1169" cy="1686.4" r="11"/><path fill="#FFF" d="M-1172 1680.4v11l7.5-5.5z"/></symbol></svg>