<svg xmlns="http://www.w3.org/2000/svg" viewBox="-109 41 60 60"><g transform="translate(4 4)" stroke="#565656" stroke-width="2" stroke-linecap="round"><path fill="none" stroke-linejoin="round" d="M-65.9 83.8C-61.6 79.5-59 73.6-59 67c0-13.3-10.7-24-24-24s-24 10.7-24 24 10.7 24 24 24c3.1 0 5.8-.5 8.5-1.5"/><path fill="none" stroke-linejoin="round" d="M-71.4 57.5C-74.1 54.1-78.3 52-83 52c-8.3 0-15 6.7-15 15s6.7 15 15 15 15-6.7 15-15c0-.8-.1-1.2-.2-2"/><circle fill="#FE6561" stroke-linejoin="round" cx="-70" cy="87" r="5"/><circle fill="#43CFCF" stroke-linejoin="round" cx="-69.5" cy="61.5" r="3.5"/><circle fill="#EB7439" stroke-linejoin="round" cx="-83" cy="67" r="7"/><path fill="none" d="M-63.5 47.5l6-6M-108.5 92.5l6-6"/></g></svg>