<svg xmlns="http://www.w3.org/2000/svg" viewBox="-109 41 60 60"><path fill="#EB7439" d="M-104 61.2c0-.1.1-.2.2-.2h35.6c.1 0 .2.1.2.2v35.6c0 .1-.1.2-.2.2h-35.6c-.1 0-.2-.1-.2-.2V61.2z"/><path fill="none" stroke="#565656" stroke-width="2" stroke-linecap="round" d="M-104 61.2c0-.1.1-.2.2-.2h35.6c.1 0 .2.1.2.2v35.6c0 .1-.1.2-.2.2h-35.6c-.1 0-.2-.1-.2-.2V61.2z"/><path fill="none" stroke="#565656" stroke-width="2" stroke-linecap="round" d="M-89 46.2c0-.1.1-.2.2-.2h35.6c.1 0 .2.1.2.2v35.6c0 .1-.1.2-.2.2h-35.6c-.1 0-.2-.1-.2-.2V46.2z"/><path fill="#A3DB78" stroke="#565656" stroke-width="2" stroke-linecap="round" stroke-linejoin="round" d="M-89 46l-15 15h36l15-15h-36z"/><path fill="none" stroke="#565656" stroke-width="2" stroke-linecap="round" stroke-linejoin="round" d="M-89 82l-15 15h36l15-15h-36z"/></svg>