<svg data-name="Layer 1" xmlns="http://www.w3.org/2000/svg" viewBox="0 0 38.29 38.29"><circle cx="19.15" cy="19.15" r="18.73" fill="#fff"/><path d="M5.72 16.28c.52 2.83 3 6.1 3 6.1l10.84-11s-3.12-3.33-5.32-3.32-7.07 2.31-7.07 2.31-2 3.07-1.45 5.9" fill="#dadada"/><path d="M29.9 22.05s2.48-3.3 2.54-5.36-2.19-6.41-2.19-6.41S27.69 8.06 25 8.45s-5.47 3-5.47 3z" fill="#f5c1bc"/><path fill="#3544b1" d="M19.41 32.67l10.47-10.61-20.94.23 10.47 10.38"/><path fill="#8e755e" d="M8.72 22.31l10.79-10.77-.09 10.62-10.7.15z"/><path fill="#f1f2f7" d="M29.9 22.05L19.56 11.49l-.09 10.67 10.43-.11z"/></svg>