<svg width="370" height="250" viewBox="0 0 370 250" fill="none" xmlns="http://www.w3.org/2000/svg">
<rect x="9" y="9" width="352" height="232" rx="7" fill="white" stroke="black" stroke-width="2"/>
<path opacity="0.8" d="M10 40H360V234C360 237.314 357.314 240 354 240H16C12.6863 240 10 237.314 10 234V40Z" fill="#D9D9D9"/>
<path d="M354 10C357.314 10 360 12.6863 360 16L360 40L10 40L10 16C10 12.6863 12.6863 9.99998 16 9.99998L354 10Z" fill="#1B264F"/>
<g opacity="0.25">
<rect x="337" y="19" width="13" height="12" fill="white"/>
<rect x="340" y="22" width="7" height="6" fill="#848484"/>
</g>
<g opacity="0.25">
<rect x="301" y="19" width="13" height="12" fill="white"/>
<rect x="304" y="22" width="7" height="6" fill="#848484"/>
</g>
<rect x="319" y="19" width="13" height="12" fill="white"/>
<rect x="322" y="22" width="7" height="6" fill="#848484"/>
<rect x="262" y="35" width="70" height="74" fill="white"/>
<path d="M273 93L276.464 99H269.536L273 93Z" fill="#848484"/>
<rect x="282" y="95" width="40" height="2" fill="#848484"/>
<path d="M273 77L276.464 83H269.536L273 77Z" fill="#848484"/>
<rect x="282" y="79" width="40" height="2" fill="#848484"/>
<path d="M273 61L276.464 67H269.536L273 61Z" fill="#848484"/>
<rect x="282" y="63" width="40" height="2" fill="#848484"/>
<path d="M273 45L276.464 51H269.536L273 45Z" fill="#848484"/>
<rect x="282" y="47" width="40" height="2" fill="#848484"/>
</svg>
