<svg xmlns="http://www.w3.org/2000/svg" viewBox="-109 41 60 60"><g stroke="#565656" stroke-width="2"><path fill="#43CFCF" d="M-94 70h18v18h-18zM-64 52h8v8h-8z"/><path fill="#EAEAEA" d="M-106 71h9v6h-9zM-106 81h9v6h-9z"/><path fill="none" stroke-linecap="square" d="M-101 74h-1M-101 84h-1"/><path fill="none" d="M-60 79c4.4 0 8-3.4 8-7.5s-3.6-7.5-8-7.5M-76 56c-2.2 0-4 1.8-4 4s1.8 4 4 4"/><path fill="none" stroke-linecap="square" d="M-75.5 79H-61M-75 64h14M-75 56h10"/><path fill="#EAEAEA" d="M-56 54h4v4h-4z"/></g></svg>