<?xml version="1.0" standalone="no"?>
<!DOCTYPE svg PUBLIC "-//W3C//DTD SVG 1.1//EN" "http://www.w3.org/Graphics/SVG/1.1/DTD/svg11.dtd" >
<svg xmlns="http://www.w3.org/2000/svg">
<metadata>Generated by IcoMoon</metadata>
<defs>
<font id="icomoon" horiz-adv-x="1024">
<font-face units-per-em="1024" ascent="960" descent="-64" />
<missing-glyph horiz-adv-x="1024" />
<glyph unicode="&#x20;" horiz-adv-x="512" d="" />
<glyph unicode="&#xe000;" glyph-name="untitled" d="M942.024 146.512l-5.382 5.376 0.012 0.012-215.030 215.042c29.874 51.46 47.23 111.128 47.636 174.896 1.262 195.236-155.978 354.49-351.192 355.712-0.786 0.008-1.548 0.008-2.334 0.008-194.124-0.008-352.134-156.782-353.386-351.196-1.234-195.218 156-354.474 351.196-355.718 0.774 0 1.528 0 2.3 0 64.894 0 125.692 17.574 178 48.14l220.238-220.212c16.246-16.246 42.584-16.234 58.828 0l69.112 69.104c16.236 16.238 16.246 42.586 0.002 58.836zM601.386 357.286c-49.67-49.336-115.556-76.504-185.54-76.504h-1.724c-145.182 0.93-262.552 119.812-261.632 265.008 0.928 144.254 119.022 261.618 263.256 261.632h1.754c70.338-0.446 136.288-28.254 185.698-78.3 49.412-50.054 76.376-116.354 75.926-186.704-0.444-70.040-28.050-135.79-77.738-185.132zM243.634 491.968h354.508v108.448h-354.508v-108.448z" />
<glyph unicode="&#xe001;" glyph-name="untitled2" d="M870.606 661.872h-196.176v-315.436c12.98 4.444 26.978 6.93 41.564 6.93 60.008 0 110.368-41.466 123.966-97.382h100.46v236.558l-69.814 169.33zM774.528 483.056l-47.382 128.908h110.078l53.132-128.908h-115.828zM573.838 748.602h-442.814c-26.718 0-48.366-21.658-48.366-48.34v-446.308h62.694c12.852 56.9 63.704 99.412 124.422 99.412 60.828 0 111.68-42.512 124.5-99.412h197.224c5.038 22.172 15.764 42.184 30.706 58.336v387.972c0 26.682-21.65 48.34-48.366 48.34zM269.774 303.468c-42.836 0-77.694-34.872-77.694-77.774s34.858-77.774 77.694-77.774c42.94 0 77.802 34.872 77.802 77.774s-34.864 77.774-77.802 77.774zM715.994 303.468c-42.904 0-77.802-34.872-77.802-77.774s34.898-77.774 77.802-77.774 77.764 34.872 77.764 77.774-34.86 77.774-77.764 77.774z" />
<glyph unicode="&#xe002;" glyph-name="untitled3" d="M943.646 145.198l-5.38 5.382 0.010 0.012-215.030 215.036c29.876 51.468 47.234 111.132 47.644 174.906 1.254 195.222-155.984 354.482-351.198 355.708-0.788 0.004-1.546 0.004-2.334 0.004-194.124-0.012-352.134-156.778-353.386-351.198-1.234-195.216 156-354.462 351.196-355.714 0.77-0.010 1.524-0.010 2.298-0.010 64.89 0 125.692 17.584 178.006 48.156l220.236-220.22c16.242-16.25 42.578-16.236 58.824 0l69.112 69.11c16.236 16.236 16.244 42.588 0.002 58.828zM603.008 355.966c-49.664-49.334-115.562-76.502-185.54-76.502l-1.722 0.008c-145.18 0.928-262.55 119.808-261.632 264.998 0.452 70.030 28.060 135.776 77.75 185.126 49.666 49.334 115.546 76.504 185.502 76.504h1.764c70.328-0.446 136.276-28.242 185.694-78.292 49.41-50.056 76.378-116.356 75.926-186.708-0.446-70.026-28.054-135.778-77.742-185.134zM476.73 728.4h-108.438v-123.038h-123.032v-108.444h123.032v-123.038h108.438v123.040h123.040v108.444h-123.040v123.036z" />
<glyph unicode="&#xe003;" glyph-name="untitled4" d="M478.816 159.844h55.464v77.274h-55.464v-77.274zM797.070 883.718h-217.204v-25.822h-104.71v-34.536h-43.038v60.36h-206.024c-26.746 0-48.328-21.644-48.328-48.324v-772.022c0-26.718 21.582-48.338 48.328-48.338h570.976c26.686 0 48.328 21.62 48.328 48.338v772.020c0 26.68-21.642 48.324-48.328 48.324zM505.242 827.144h72.592v-61.542h-43.034v34.532h-29.558v27.010zM505.242 713.090h72.592v-61.542h-43.034v34.524h-29.558v27.018zM505.242 601.118h72.592v-61.542h-43.034v34.528h-29.558v27.014zM505.242 484.176h72.592v-27.048h-72.592v27.048zM432.118 770.846h72.664v-27.022h-29.626v-34.532h-43.038v61.554zM432.118 658.868h72.664v-27.014h-29.626v-34.526h-43.038v61.54zM432.118 541.926h72.664v-27.042h-29.626v-34.566h-43.038v61.608zM551.216 126.418h-89.404c-27.798 0-47.026 22.428-42.908 49.902l15.044 98.3c4.124 27.414 30.284 49.838 58.014 49.838h29.104c27.732 0 53.826-22.424 58.010-49.838l14.982-98.3c4.248-27.474-15.044-49.902-42.842-49.902zM533.426 357.818h-55.654l-66.648 64.652h188.95l-66.648-64.652z" />
<glyph unicode="&#xe004;" glyph-name="untitled5" d="M748.472 734.208l0.004 0.008c-69.33 57.684-153.902 85.988-237.56 85.938-96.562 0.054-192.764-37.756-264.642-110.664l-72.22 60.244-1.216-232.138 228.164 42.822-75.56 63.032c51.33 48.882 118.006 73.914 185.474 73.968 60.76-0.054 121.446-20.282 171.878-62.19 64.122-53.322 97.008-129.7 97.092-207.132-0.014-11.192-0.714-22.376-2.106-33.506l104.542 19.988c0.162 4.51 0.28 9.016 0.28 13.518 0.076 106.506-45.764 212.664-134.13 286.112zM697.47 254.458c-51.506-49.776-118.792-75.262-186.898-75.316-60.776 0.036-121.466 20.3-171.878 62.168-64.114 53.328-97.034 129.722-97.104 207.138 0.012 12.818 0.972 25.624 2.794 38.34l-105.014-19.708c-0.306-6.208-0.51-12.42-0.51-18.63-0.062-106.508 45.796-212.694 134.16-286.136 69.304-57.634 153.878-85.94 237.55-85.904h0.272c97.196 0 194.032 38.382 266.006 112.292l69.006-57.172 0.428 232.146-228.014-43.608 79.202-65.61z" />
<glyph unicode="&#xe005;" glyph-name="untitled6" d="M649.632 614.456l0.028-0.054c-0.16 0.216-0.292 0.426-0.484 0.638-8.44 11.658-16.78 22.866-24.922 33.522-10.79 18.050-16.484 40.012-3.238 71.698v0.018l45.552 109.010-71.616 32.596 7.392 32.312h-179.668l9.416-41.17-73.608-23.738 45.522-109.010 0.036-0.018c22.494-53.89-9.712-79.626-28.65-105.856-93.722-129.592-198.626-315.128-198.626-426.98 0-185.468 144.016-179.292 335.714-179.292 191.762 0 335.778-6.176 335.778 179.292 0 111.868-104.934 297.404-198.626 427.032zM467.356 705.464h91.758v-57.862h-91.758v57.862zM614.218 346.726v-41.582h-62.566l-6.564-12.688v-20.116h69.13v-41.564h-69.13v-60.362h-66.49v60.362h-68.672v41.564h68.672v20.116l-6.082 12.688h-62.59v41.582h41.602l-66.978 136.030h70.898l57.718-136.030 56.442 136.030h70.87l-67.83-136.030h41.57z" />
<glyph unicode="&#xe006;" glyph-name="untitled7" d="M628.878 317.398c-0.372-0.070-0.766-0.126-1.144-0.202l-97.692 80.912-0.156-91.326c-6.336-0.182-12.704-0.31-19.132-0.306-95.55-0.146-181.64 20.696-239.57 51.156-28.992 15.090-50.672 32.458-63.684 48.648-13.118 16.45-17.74 30.158-17.828 43.436 0.068 15.968 7.092 33.596 27.716 54.288 20.362 20.292 53.636 40.8 96.072 56.426 2.378 0.88 4.812 1.734 7.242 2.586l-89.078 73.778c-33.238-16.464-62.514-36.18-86.458-59.73-34.238-33.536-58.28-77.7-58.212-127.346-0.092-40.458 16.13-77.958 40.706-108.068 37.138-45.42 92.146-78.364 157.754-101.742 65.73-23.16 142.75-36.122 225.34-36.156 6.36 0 12.668 0.106 18.958 0.262l-0.176-101.45 179.292 147.464-79.95 66.218v1.152zM491.914 793.778l-179.292-147.46 178.792-148.080 0.156 94.424c6.36 0.184 12.736 0.308 19.182 0.304 95.538 0.124 181.628-20.704 239.546-51.166 29-15.088 50.672-32.458 63.68-48.652 13.11-16.452 17.734-30.158 17.83-43.43-0.048-9.282-2.284-18.32-7.902-28.756-8.318-15.528-25.268-33.57-50.974-50.17-19.148-12.452-42.926-24.010-70.222-33.714l88.942-73.666c26.484 13.276 50.346 28.71 71.040 46.406 20.93 18.012 38.644 38.532 51.47 62.060 12.794 23.436 20.416 50.154 20.38 77.84v0.336c0 40.324-16.208 77.698-40.722 107.718-37.144 45.432-92.128 78.362-157.754 101.744-65.712 23.164-142.722 36.124-225.312 36.16-6.386 0-12.686-0.2-19.004-0.354l0.164 98.456z" />
<glyph unicode="&#xe007;" glyph-name="untitled8" d="M380.142 322.962c-0.070 0.378-0.128 0.774-0.204 1.15l80.914 97.696-91.324 0.156c-0.182 6.336-0.31 12.7-0.306 19.132-0.144 95.542 20.696 181.636 51.16 239.57 15.086 28.988 32.454 50.672 48.646 63.676 16.448 13.124 30.156 17.742 43.432 17.836 15.972-0.070 33.596-7.090 54.296-27.718 20.288-20.364 40.794-53.638 56.416-96.070 0.878-2.378 1.732-4.816 2.586-7.242l73.78 89.074c-16.468 33.242-36.186 62.516-59.736 86.46-33.53 34.23-77.698 58.282-127.342 58.208-40.458 0.094-77.958-16.13-108.066-40.706-45.424-37.138-78.368-92.142-101.742-157.752-23.16-65.728-36.122-142.754-36.16-225.336 0-6.36 0.112-12.672 0.264-18.958l-101.45 0.168 147.46-179.292 66.222 79.948h1.154zM856.528 459.934l-147.47 179.288-148.078-178.788 94.432-0.156c0.178-6.36 0.302-12.732 0.302-19.18 0.122-95.536-20.708-181.632-51.172-239.55-15.088-28.996-32.458-50.664-48.65-63.672-16.448-13.122-30.16-17.74-43.43-17.832-9.282 0.042-18.32 2.28-28.756 7.898-15.52 8.316-33.572 25.264-50.168 50.974-12.45 19.146-24.018 42.924-33.716 70.22l-73.668-88.942c13.28-26.484 28.714-50.352 46.412-71.040 18.012-20.926 38.536-38.652 62.058-51.47 23.436-12.798 50.156-20.42 77.838-20.378h0.336c40.328 0 77.698 16.208 107.72 40.716 45.43 37.148 78.36 92.132 101.746 157.762 23.16 65.71 36.12 142.72 36.16 225.312-0.004 6.382-0.206 12.68-0.354 19l98.458-0.162z" />
<glyph unicode="&#xe008;" glyph-name="untitled9" d="M823.37 636.848l-97.698 26.178-26.186 97.702 99.728 99.728c-58.86 15.89-124.342 0.778-170.544-45.424-46.48-46.474-61.494-112.458-45.136-171.588l-269.094-269.096c-59.13 16.352-125.11 1.336-171.594-45.138-46.2-46.202-61.31-111.686-45.42-170.548l99.732 99.722 97.7-26.176 26.18-97.702-99.728-99.728c58.86-15.882 124.344-0.772 170.542 45.43 48.516 48.508 62.746 118.282 42.81 179.316l263.704 263.696c61.040-19.944 130.802-5.706 179.306 42.808 46.206 46.202 61.314 111.686 45.426 170.546l-99.728-99.726z" />
<glyph unicode="&#xe009;" glyph-name="untitled10" d="M542.034 140.4v271.206c128.388 15.176 228.388 124.668 228.388 257.070 0 36.78-8.5 110.768-31.458 152.816l-16.222 29.834h-422.506l-16.284-29.834c-22.894-42.1-31.394-116.036-31.394-152.816 0-133.778 101.898-244.166 232.244-257.554v-270.722c-104.776-3.188-185.612-23.534-185.612-48.14 0-26.828 95.946-48.576 214.262-48.576 118.248 0 214.132 21.748 214.132 48.576 0.002 24.608-80.842 44.952-185.55 48.14z" />
<glyph unicode="&#xe00a;" glyph-name="untitled11" d="M845.904 217.39l-231.776 231.774 231.768 231.774-103.444 103.446-231.772-231.77-231.766 231.762-103.452-103.438 231.77-231.77-231.77-231.778 103.452-103.442 231.774 231.772 231.768-231.764z" />
<glyph unicode="&#xe00b;" glyph-name="untitled12" d="M459.764 441.062c-37.838 23.192-74.040 42.75-119.462 46.316-55.502 4.376-110.858-12.316-161.694-33.060l-73.050-255.596c97.926 37.398 188.238 41.71 278.854-15.754l75.384 258.078c0 0-0.016 0.016-0.032 0.016M362.098 540.158c46.118-5.67 82.742-25.182 112.608-43.948 24.712 85.302 49.18 170.67 74.104 255.892-35.586 22.638-71.95 42.262-114.568 46.508-56.086 6.694-114.52-10.128-165.824-31.114-25.004-85.496-49.492-171.156-74.22-256.734 52.958 20.776 110.584 36.43 167.9 29.396M661.096 359.636c-68.694 0-115.444 24.208-155.504 50.852-0.194-0.226-0.502-0.422-0.728-0.586l-74.218-256.878c94.084-62.356 200.598-61.774 302.916-18.57l71.966 251.078-0.646-0.164c-54.256-18.15-101.818-25.732-143.786-25.732M896.91 702.886c-0.196 0.13-0.358 0.292-0.52 0.454-103.34-41.954-205.154-46.346-301.088 17.406-4.39-15.136-8.428-26.578-10.984-35.456-8.478-29.332-16.952-58.664-25.43-87.994-12.994-45.050-26.008-90.1-39.020-135.132 93.778-60.624 200.21-63.864 301.866-18.184l75.336 258.762-0.16 0.144" />
<glyph unicode="&#xe00c;" glyph-name="untitled13" d="M99.050 374.416h338.766v-227.886h-338.766zM99.050 570.318v-148.546h58.212v90.328h513.558v-307.364h-185.648v-58.206h243.86v423.788h-571.77zM99.050 749.47v-123.71h58.212v65.496h709.476v-486.52h-82.262v-58.206h140.478v602.94z" />
<glyph unicode="&#xe00d;" glyph-name="untitled14" d="M732.236 483.416l193.914 193.918-88.492 88.498-193.924-193.916-79.142 79.15v-248.276h248.27zM853.58 202.748h-683.16v490.508h362.394v72.576h-434.964v-635.664h828.3v221.106h-72.57z" />
<glyph unicode="&#xe00e;" glyph-name="untitled15" d="M324.146 290.542l59.756-59.746c32.184 34.186 77.754 55.64 128.418 55.64 50.672 0 96.238-21.456 128.442-55.64l59.746 59.746c-47.556 49.522-114.262 80.51-188.188 80.51-73.914 0-140.606-30.988-188.174-80.51zM512.32 194.432c-25.224 0-47.644-11.322-63.16-28.892l63.172-63.172 63.168 63.172c-15.528 17.57-37.946 28.892-63.18 28.892zM952.422 549.916c-243.062 243.064-637.136 243.048-880.2 0-1.25-1.25-2.39-2.566-3.624-3.812l61.324-61.326c97.21 99.132 232.588 160.708 382.41 160.708 149.812 0 285.184-61.574 382.406-160.708l61.32 61.326c-1.242 1.246-2.382 2.562-3.636 3.812zM512.332 553.486c-118.508 0-229.93-46.146-313.726-129.942-1.244-1.246-2.394-2.558-3.636-3.818l63.952-63.946c64.188 66.122 153.974 107.274 253.4 107.274 99.44 0 189.216-41.152 253.422-107.274l63.934 63.938c-1.234 1.268-2.39 2.58-3.638 3.826-83.798 83.796-195.206 129.942-313.708 129.942z" />
<glyph unicode="&#xe00f;" glyph-name="untitled16" d="M644.386 499.284h-258.968v95.98l-178.288-147.152 178.288-147.13v95.978h258.968v-95.978l178.286 147.13-178.286 147.152v-95.98zM75.47 257.844h102.294v380.524h-102.294v-380.524zM845.398 638.368v-380.524h102.292v380.524h-102.292z" />
<glyph unicode="&#xe010;" glyph-name="untitled17" d="M836.118 138.25l-76.464 413.156c-2.7 14.55-15.386 25.114-30.188 25.114h-120.902c20.914 23.114 33.668 53.734 33.668 87.29 0 71.804-58.418 130.23-130.234 130.23-71.804 0-130.23-58.426-130.23-130.23 0-33.554 12.762-64.176 33.676-87.29h-120.914c-14.796 0-27.488-10.562-30.184-25.114l-76.46-413.156c-1.66-8.968 0.75-18.21 6.586-25.222 5.832-7.012 14.476-11.066 23.598-11.066h587.864c9.122 0 17.77 4.054 23.602 11.066s8.242 16.254 6.582 25.222zM511.996 736.316c40.050 0 72.516-32.464 72.516-72.508 0-40.054-32.464-72.52-72.516-72.52-40.046 0-72.508 32.464-72.508 72.52 0 40.044 32.462 72.508 72.508 72.508zM446.836 209.176l-62.492 88.546-15.68-15.894v-72.652h-52.398v218.316h52.398v-78.812l73.906 78.812h69.852l-90.898-91.106 93.218-127.21h-67.906zM718.622 209.176h-37.64l-3.43 20.344c-6.172-6.472-11.84-11.242-17.188-14.468-12.2-7.464-27.328-11.254-44.946-11.254-28.922 0-52.984 10.184-71.492 30.27-19.148 20.016-28.878 47.692-28.878 82.218 0 34.856 9.804 63.274 29.148 84.46 19.45 21.32 45.464 32.128 77.312 32.128 27.558 0 50.102-7.164 67.008-21.292 16.988-14.204 26.868-32.184 29.364-53.446l0.622-5.29h-52.016l-0.852 3.664c-2.976 12.844-10.016 21.558-21.528 26.632-6.52 2.832-13.942 4.278-22.028 4.278-15.504 0-27.878-5.684-37.84-17.364-10.016-11.738-15.094-29.954-15.094-54.122 0-24.136 5.386-41.274 16.020-50.946 10.914-9.922 22.938-14.746 36.77-14.746 13.554 0 24.296 3.726 32.82 11.386 7.312 6.57 12.136 14.708 14.656 24.762h-47.258v44.328h96.468v-121.542z" />
<glyph unicode="&#xe011;" glyph-name="untitled18" d="M906.95 302.012h-791.512c-28.186 0-40.542-20.402-27.468-45.394l58.926-112.59c13.152-24.948 46.898-45.388 75.15-45.388h578.3c28.186 0 62 20.442 75.076 45.388l59 112.59c13.078 24.992 0.718 45.394-27.472 45.394zM238.658 149.232c-28.19 0-51.078 22.89-51.078 51.078 0 28.224 22.888 51.078 51.078 51.078 28.258 0 51.080-22.854 51.080-51.078 0-28.186-22.822-51.078-51.080-51.078zM422.77 149.232c-28.188 0-51.018 22.89-51.018 51.078 0 28.224 22.83 51.078 51.018 51.078 28.254 0 51.078-22.854 51.078-51.078 0-28.186-22.824-51.078-51.078-51.078zM606.946 151.45c-27.012 0-48.856 21.918-48.856 48.862 0 27.008 21.844 48.88 48.856 48.88 27.010 0 48.86-21.874 48.86-48.88-0.002-26.944-21.85-48.862-48.86-48.862zM791.058 151.45c-26.948 0-48.864 21.918-48.864 48.862 0 27.008 21.916 48.88 48.864 48.88 27.008 0 48.92-21.874 48.92-48.88 0-26.944-21.912-48.862-48.92-48.862zM235.652 631.48l120.734-70.114c0-0.52-0.064-1.046-0.064-1.604v-85.25h-98.894l-65.662-113.51h652.856l-65.73 113.51h-96.796v85.25c0 27.046-21.974 48.952-48.99 48.952h-227.794c-0.986 0-1.838-0.062-2.75-0.092l-134.734 78.22 15.438 26.554-142.974 82.998-63.182-108.704 142.974-83 15.568 26.79z" />
<glyph unicode="&#xe012;" glyph-name="untitled19" d="M613.994 711.218c17.984 0 32.554 14.572 32.554 32.552v101.862c0.004 17.978-14.57 32.552-32.554 32.552-17.966 0-32.542-14.574-32.546-32.552v-101.864c0-17.978 14.58-32.556 32.546-32.55zM775.498 664.73l72.030 72.034c12.712 12.714 12.706 33.324 0 46.030-12.714 12.712-33.324 12.712-46.038 0l-72.026-72.028c-12.712-12.712-12.716-33.322 0-46.036 12.708-12.712 33.322-12.706 46.034 0zM453.366 659.626c12.708-12.706 33.326-12.706 46.036 0 12.706 12.712 12.706 33.324 0 46.036l-72.036 72.036c-12.71 12.706-33.322 12.706-46.030 0-12.718-12.712-12.718-33.324 0-46.036l72.030-72.036zM772.366 432.7c-12.712 12.714-33.326 12.714-46.040 0-12.708-12.71-12.708-33.322 0-46.036l72.030-72.028c12.712-12.712 33.326-12.712 46.036 0 12.716 12.712 12.716 33.316 0 46.030l-72.026 72.034zM632.328 694.822l-557.078-557.072 117.522-117.52 557.082 557.066-117.526 117.526zM501.938 496.478l135.212 135.216 49.574-49.576-135.212-135.216-49.574 49.576zM912.338 579.846h-101.868c-17.98 0-32.55-14.578-32.55-32.55-0.008-17.97 14.57-32.55 32.55-32.55h101.868c17.976 0 32.546 14.58 32.546 32.55 0 17.98-14.57 32.55-32.546 32.55z" />
<glyph unicode="&#xe013;" glyph-name="untitled20" d="M890.542 678.258c0 56.414-45.85 102.33-102.226 102.33h-656.452v-78.554h6.926c12.364 0 22.436-10 22.436-22.4 0-12.36-10.072-22.402-22.436-22.402h-6.926v-422.306h6.926c12.364 0 22.436-10.012 22.436-22.402 0-12.328-10.072-22.402-22.436-22.402h-6.926v-74.494h656.45c56.376 0 102.226 45.88 102.226 102.264v121.098h-148.006c-32.442 0-58.864 26.348-58.864 58.892v100.424c0 32.54 26.422 58.892 58.864 58.892h148.006v121.060zM726.442 234.926h39.504v41.106c0 12.362 10.008 22.366 22.37 22.366 12.364 0 22.374-10.004 22.374-22.366v-58.5c0-1.308-0.070-2.358-0.33-3.21-1.634-13.606-13.016-24.2-26.948-24.2h-56.968c-12.358 0-22.366 10.074-22.366 22.402-0.002 12.39 10.006 22.402 22.364 22.402zM266.398 190.122h-44.804c-12.364 0-22.366 10.074-22.366 22.402 0 12.39 10.002 22.402 22.366 22.402h44.804c12.362 0 22.43-10.012 22.43-22.402 0-12.328-10.068-22.402-22.43-22.402zM266.398 657.232h-44.804c-12.364 0-22.366 10.042-22.366 22.402 0 12.398 10.002 22.4 22.366 22.4h44.804c12.362 0 22.43-10 22.43-22.4 0-12.358-10.068-22.402-22.43-22.402zM392.626 190.122h-44.806c-12.292 0-22.364 10.074-22.364 22.402 0 12.39 10.070 22.402 22.364 22.402h44.806c12.356 0 22.366-10.012 22.366-22.402 0-12.328-10.008-22.402-22.366-22.402zM392.626 657.232h-44.806c-12.292 0-22.364 10.042-22.364 22.402 0 12.398 10.070 22.4 22.364 22.4h44.806c12.356 0 22.366-10 22.366-22.4 0-12.358-10.008-22.402-22.366-22.402zM518.788 190.122h-44.74c-12.354 0-22.432 10.074-22.432 22.402 0 12.39 10.078 22.402 22.432 22.402h44.74c12.426 0 22.432-10.012 22.432-22.402-0.002-12.328-10.008-22.402-22.432-22.402zM518.788 657.232h-44.74c-12.354 0-22.432 10.042-22.432 22.402 0 12.398 10.078 22.4 22.432 22.4h44.74c12.426 0 22.432-10 22.432-22.4-0.002-12.358-10.008-22.402-22.432-22.402zM645.016 190.122h-44.798c-12.366 0-22.37 10.074-22.37 22.402 0 12.39 10.004 22.402 22.37 22.402h44.798c12.36 0 22.434-10.012 22.434-22.402 0-12.328-10.074-22.402-22.434-22.402zM645.016 657.232h-44.798c-12.366 0-22.37 10.042-22.37 22.402 0 12.398 10.004 22.4 22.37 22.4h44.798c12.36 0 22.434-10 22.434-22.4 0-12.358-10.074-22.402-22.434-22.402zM810.688 616.166c0-12.37-10.010-22.432-22.374-22.432-12.362 0-22.37 10.064-22.37 22.432v41.066h-39.504c-12.358 0-22.366 10.042-22.366 22.402 0 12.398 10.008 22.4 22.366 22.4h56.968c13.932 0 25.312-10.562 26.948-24.13 0.26-0.89 0.33-1.934 0.33-3.204v-58.534zM737.362 448.112c0-28.124 22.834-50.918 51.018-50.918 28.058 0 50.888 22.794 50.888 50.918 0 28.084-22.83 50.91-50.888 50.91-28.184 0-51.018-22.824-51.018-50.91z" />
<glyph unicode="&#xe014;" glyph-name="untitled21" d="M803.876 653.056h-111.516v158.704c0 28.256-22.89 51.144-51.078 51.144-28.256 0-51.18-22.888-51.18-51.144v-158.704h-176.786v158.704c0 28.256-22.856 51.144-51.142 51.144-28.224 0-51.114-22.888-51.114-51.144v-158.704h-92.806v-101.536l132.244-240.878h321.13l132.248 240.878v101.536zM375.188 147.808h84.728v-114.002h102.294v114.002h84.76v102.28h-271.782v-102.28z" />
<glyph unicode="&#xe015;" glyph-name="untitled22" d="M910.368 785.12h-796.736c-22.080 0-40-17.92-40-40v-594.24c0-22.080 17.92-40 40-40h796.736c22.080 0 40 17.92 40 40v594.24c0 22.112-17.888 40-40 40zM870.368 190.88h-716.736v514.24h108.256v-77.984h128v77.984h244.256v-77.984h128v77.984h108.256v-514.24zM304.608 425.696c15.168-27.904 34.4-33.728 47.84-33.728 13.408 0 32.64 5.824 47.936 33.632l0.928 1.696c7.584 13.76 13.056 23.712 13.056 46.208 0 19.904 0 72.768-61.888 72.768-61.568 0-61.568-51.008-61.568-72.768 0-22.56 5.408-32.512 12.928-46.304l0.768-1.504zM469.792 356.768l-61.536 27.552c-2.624 1.184-5.568 1.248-8.192 0.096l-31.264-13.152h-32.448l-31.264 13.056c-2.624 1.12-5.568 1.056-8.128-0.096l-61.6-27.488c-3.712-1.664-6.080-5.344-6.080-9.376v-37.536c0-5.664 4.608-10.272 10.272-10.272h226.016c5.664 0 10.272 4.608 10.272 10.272v37.6c0.032 4.032-2.368 7.712-6.048 9.344zM567.488 528.064h227.264v-62.912h-227.264zM567.488 383.040h227.264v-62.912h-227.264z" />
<glyph unicode="&#xe016;" glyph-name="untitled23" d="M509.058 317.548c77.77 0 140.82 63.042 140.82 140.82v267.466c0 77.772-63.050 140.82-140.82 140.82-77.776 0-140.818-63.048-140.818-140.82v-267.466c0.002-77.776 63.044-140.82 140.818-140.82zM700.66 551.946v-93.936c-0.024-53.024-21.396-100.698-56.114-135.486-34.79-34.726-82.466-56.102-135.488-56.122-53.024 0.020-100.708 21.394-135.49 56.122-34.732 34.79-56.098 82.462-56.116 135.486v93.936h-70.108l-0.008-93.936c0.028-132.662 98.698-242.154 226.664-259.302v-97.43h-114.848v-70.114h299.798v70.114h-114.838v97.43c127.954 17.148 226.636 126.64 226.66 259.302v93.936h-70.112z" />
<glyph unicode="&#xe017;" glyph-name="untitled24" d="M689.102 550.684v-203.654l248.988-160.786v525.22l-248.988-160.78zM598.128 680.108h-477.636c-22.584 0-40.894-18.312-40.894-40.894v-380.716c0-22.586 18.31-40.894 40.894-40.894h477.636c22.586 0 40.898 18.308 40.898 40.894v380.714c0.002 22.584-18.312 40.896-40.898 40.896z" />
<glyph unicode="&#xe018;" glyph-name="untitled25" d="M73.484 719.874v-545.036h187.794v65.106h-55.086v50.076h140.216v-50.076h-55.082v-65.106h438.178v65.106h-55.086v50.076h140.218v-50.076h-55.086v-65.106h190.384v545.036h-876.45zM491.634 577.97h373.078v-50.076h-373.078v50.076zM391.664 415.898c-5.406 6.63-15.39 8.436-24.034 12.088-11.546 4.872-24.346 10.506-35.864 15.232-3.286 0.898-6.57 1.79-9.858 2.684-3.926 2.704-7.756 11.68-9.86 16.142-2.090 0.296-4.172 0.6-6.27 0.886 0.322 6.898 4.59 7.284 6.27 12.556 1.484 4.652 0.156 10.69 2.502 14.992 1.628 2.992 5.3 3.012 7.134 5.578 1.668 2.324 2.778 6.386 3.288 9.228 0.958 5.21 1.782 12.34-0.692 17.496-1.428 2.966-2.316 3.258-2.712 6.854-0.48 4.364 1.286 18.602 1.36 21.678 0.176 7.982-0.008 15.224-1.94 22.998 0 0-2.35 7.040-6.032 9.172l-7.336 1.262-4.528 4.192c-18.27 11.244-37.842 3.366-48.33-0.888-15.118-4.9-24.668-26.274-17.994-57.884 1.134-5.4-2.962-7.82-2.688-10.764 0.582-6.436 0.708-21.924 6.792-25.746 0.57-0.35 4.886-1.44 4.86-1.14 0.594-6.262 1.192-12.552 1.788-18.818 1.53-4.176 5.172-4.624 6.224-10.516l-4.666-1.134c-2.090-4.462-5.934-13.44-9.854-16.142-3.292-0.894-6.58-1.786-9.862-2.684-11.514-4.726-24.316-10.362-35.844-15.232-7.812-3.286-16.728-5.030-22.378-10.198v205.246h220.522v-207.138zM864.716 432.734h-373.084v50.088h373.084v-50.088z" />
<glyph unicode="&#xe019;" glyph-name="untitled26" d="M611.384 422.762v-117.214h-199.81v117.214h-336.758v-346.116h873.332v346.116h-336.764zM411.574 553.958h199.81v-79.878h336.712v157.766c0 23.486-19.050 42.54-42.546 42.54h-156.876v54.734c-0.020 49.888-40.414 90.286-90.302 90.308h-294.352c-49.876-0.024-90.278-40.42-90.304-90.308v-54.736h-156.908c-23.494 0-42.546-19.052-42.546-42.54v-157.766h337.312v79.88zM335.276 729.12c0.028 15.862 12.88 28.72 28.746 28.748h294.35c15.874-0.028 28.716-12.886 28.756-28.748v-54.736h-351.852v54.736zM561.032 355.75v148.26h-99.658v-148.26h99.658z" />
<glyph unicode="&#xe01a;" glyph-name="untitled27" d="M621.522 685.158c5.298-21.328 5.826-41.134 5.338-63.030-0.198-8.446-5.042-47.472-3.73-59.434 1.082-9.872 3.548-10.656 7.44-18.79 6.78-14.16 4.51-33.684 1.912-47.958-1.424-7.812-4.432-18.936-9.004-25.306-5.042-7.036-15.124-7.082-19.586-15.282-6.426-11.798-2.796-28.372-6.848-41.12-4.604-14.46-16.32-15.474-17.208-34.39 5.75-0.824 11.476-1.638 17.208-2.46 5.75-12.224 16.278-36.812 27.030-44.214 9.008-2.462 18.016-4.92 27.028-7.372 31.562-12.95 66.64-28.44 98.278-41.778 28.806-12.148 63.29-16.48 73.706-46.678 0-20.506 1.936-68.942 1.402-95.814h-627.51c-0.524 26.874 1.404 75.308 1.404 95.814 10.418 30.198 44.902 34.53 73.708 46.678 31.636 13.338 66.714 28.828 98.274 41.778 9.012 2.452 18.022 4.908 27.028 7.372 10.758 7.402 21.288 31.99 27.038 44.214l12.792 3.114c-2.902 16.144-12.902 17.394-17.072 28.83-1.63 17.194-3.272 34.402-4.904 51.604 0.070-0.816-11.764 2.144-13.314 3.116-16.69 10.466-17.030 52.922-18.634 70.578-0.732 8.076 10.488 14.698 7.372 29.49-18.284 86.66 7.908 145.25 49.33 158.698 28.742 11.652 82.414 33.26 132.478 2.456l12.432-11.52 20.1-3.458c10.074-5.818 16.512-25.138 16.512-25.138zM358.36 532.024c-0.988 10.856 3.514 19.074 6.204 23.998 0.516 0.954 1.198 2.194 1.532 2.944-2.292 10.928-3.914 21.394-4.98 31.43l-13.918 2.386-8.854 8.208c-35.686 21.954-73.948 6.552-94.428-1.74-29.53-9.594-48.2-51.356-35.16-113.12 2.216-10.548-5.784-15.266-5.256-21.026 1.142-12.584 1.376-42.852 13.28-50.306 1.102-0.692 9.54-2.808 9.492-2.232 1.166-12.254 2.33-24.516 3.494-36.77 2.97-8.152 10.104-9.042 12.164-20.544l-9.12-2.228c-4.096-8.714-11.598-26.244-19.262-31.52-6.418-1.748-12.848-3.502-19.262-5.254-22.498-9.222-47.502-20.268-70.056-29.776-20.528-8.658-45.11-11.75-52.536-33.266 0-14.616-1.38-49.152-0.996-68.3h101.602c0.13 6.256 0.276 12.514 0.426 18.552 0.316 13.262 0.618 25.784 0.618 33.552v4.194l1.372 3.968c12.070 34.984 43.878 46.004 69.44 54.852 6.458 2.232 12.556 4.344 18.208 6.734 12.406 5.224 25.346 10.792 38.392 16.402 19.204 8.256 39.004 16.754 57.616 24.426-0.93 2.016-1.786 3.872-2.52 5.434-4.086 0.584-8.166 1.168-12.262 1.752 0.632 13.486 8.984 14.212 12.262 24.516 2.89 9.096 0.3 20.898 4.884 29.306 3.176 5.844 10.366 5.886 13.956 10.89 3.254 4.546 5.408 12.48 6.42 18.042 0.544 2.99 1.052 6.316 1.394 9.754-19.496 17.968-21.932 52.884-23.554 76.74-0.206 3.012-0.39 5.72-0.592 8.002zM949.308 253.208c-7.42 21.516-32.006 24.608-52.542 33.266-22.546 9.508-47.548 20.552-70.048 29.776-6.418 1.752-12.844 3.506-19.262 5.254-7.668 5.276-15.164 22.804-19.272 31.52-4.080 0.584-8.168 1.168-12.258 1.752 0.632 13.486 8.978 14.212 12.258 24.516 2.89 9.096 0.304 20.898 4.886 29.306 3.174 5.844 10.366 5.886 13.958 10.89 3.26 4.546 5.408 12.48 6.422 18.042 1.854 10.172 3.466 24.094-1.368 34.186-2.772 5.796-4.528 6.354-5.298 13.382-0.942 8.534 2.512 36.35 2.656 42.37 0.352 15.608-0.028 29.724-3.8 44.926 0 0-4.592 13.774-11.776 17.926l-14.332 2.46-8.858 8.208c-35.686 21.954-73.948 6.552-94.428-1.74-11.4-3.7-21.148-12.25-28.112-24.836-0.226-4.172-0.304-7.586-0.122-9.336 0.098-0.914 0.198-1.452 0.248-1.716 0.24-0.456 0.52-0.902 0.804-1.388 1.042-1.786 2.476-4.226 4.084-7.598 10.044-20.984 7.076-46.144 3.962-63.258-1.54-8.442-5.31-24.276-13.292-35.412-2.088-2.906-4.39-5.252-6.708-7.206 1.268-13.338 3.988-28.686 11.996-33.702 1.106-0.692 9.542-2.808 9.494-2.232 1.164-12.254 2.332-24.516 3.498-36.77 2.966-8.152 10.098-9.042 12.164-20.544l-9.12-2.228c-0.714-1.52-1.538-3.318-2.448-5.266 18.708-7.708 38.634-16.256 57.946-24.566 13.074-5.622 26.034-11.194 38.458-16.43 5.648-2.39 11.75-4.502 18.208-6.734 25.562-8.848 57.376-19.868 69.44-54.852l1.372-3.968v-4.194c0-7.77 0.302-20.292 0.624-33.552 0.14-6.040 0.292-12.296 0.428-18.552h101.132c0.386 19.148-0.994 53.686-0.994 68.3z" />
<glyph unicode="&#xe01b;" glyph-name="untitled28" d="M613.636 288.898c-30.906 13.024-65.176 28.16-96.014 40.812-8.796 2.392-17.6 4.792-26.404 7.2-10.502 7.222-20.79 31.252-26.408 43.204-5.59 0.792-11.196 1.59-16.804 2.386 0.868 18.484 12.316 19.478 16.804 33.6 3.962 12.458 0.416 28.646 6.696 40.178 4.358 8.004 14.206 8.058 19.13 14.922 4.464 6.234 7.402 17.098 8.796 24.722 2.538 13.942 4.752 33.024-1.87 46.86-3.806 7.94-6.208 8.706-7.264 18.352-1.282 11.69 3.446 49.814 3.642 58.062 0.482 21.388-0.034 40.738-5.212 61.578 0 0-6.29 18.872-16.14 24.562l-19.634 3.374-12.142 11.252c-48.908 30.098-101.346 8.986-129.424-2.394-40.47-13.136-66.060-70.378-48.196-155.036 3.050-14.454-7.918-20.926-7.2-28.814 1.57-17.256 1.894-58.73 18.206-68.944 1.512-0.958 13.076-3.85 13.008-3.056 1.596-16.792 3.194-33.612 4.79-50.408 4.076-11.172 13.838-12.394 16.676-28.166l-12.494-3.030c-5.622-11.952-15.906-35.98-26.416-43.204-8.794-2.406-17.6-4.806-26.396-7.2-30.836-12.652-65.11-27.79-96.010-40.812-28.138-11.88-61.832-16.106-72.012-45.604 0-20.042-1.88-67.354-1.374-93.608h613.042c0.512 26.254-1.372 73.566-1.372 93.608-10.17 29.498-43.866 33.724-72.004 45.604zM787.074 291.624c-22.026 9.282-46.454 20.072-68.43 29.086-6.272 1.7-12.55 3.416-18.82 5.128-7.488 5.152-14.816 22.278-18.82 30.792-3.992 0.572-7.982 1.144-11.978 1.712 0.616 13.184 8.768 13.882 11.978 23.948 2.82 8.884 0.292 20.408 4.766 28.632 3.108 5.712 10.126 5.746 13.632 10.638 3.186 4.442 5.29 12.196 6.282 17.626 1.808 9.932 3.38 23.542-1.336 33.394-2.712 5.666-4.424 6.212-5.178 13.080-0.92 8.336 2.456 35.512 2.592 41.39 0.344 15.25-0.018 29.042-3.71 43.888 0 0-4.48 13.458-11.508 17.508l-13.998 2.4-8.656 8.022c-34.858 21.458-72.24 6.416-92.244-1.698-28.848-9.368-47.090-50.172-34.356-110.51 2.176-10.302-5.646-14.912-5.124-20.53 1.114-12.308 1.342-41.872 12.968-49.152 1.072-0.68 9.32-2.746 9.272-2.176 1.134-11.968 2.28-23.958 3.416-35.93 2.902-7.958 9.864-8.836 11.878-20.076l-8.898-2.172c-2.856-6.064-7.404-16.452-12.49-23.808 11.068-4.698 22.276-9.496 33.292-14.24 12.856-5.528 25.608-11.012 37.836-16.16 5.816-2.464 11.93-4.578 18.396-6.82 24.158-8.372 51.544-17.85 61.776-47.516l0.8-2.326v-2.464c0-7.712 0.3-20.034 0.614-33.064 0.14-5.808 0.286-11.83 0.414-17.84h137.946c0.372 18.706-0.972 52.45-0.972 66.726-7.258 21.024-31.276 24.046-51.34 32.512zM946.292 278.096c-5.056 14.67-21.82 16.776-35.822 22.686-15.37 6.48-32.418 14-47.764 20.302-4.368 1.184-8.744 2.384-13.124 3.576-5.224 3.598-10.338 15.546-13.134 21.484-2.788 0.404-5.574 0.8-8.36 1.204 0.43 9.188 6.118 9.688 8.36 16.708 1.964 6.2 0.204 14.248 3.33 19.976 2.166 3.992 7.060 4.020 9.514 7.44 2.222 3.096 3.692 8.494 4.378 12.292 1.262 6.944 2.362 16.432-0.936 23.306-1.888 3.954-3.084 4.336-3.61 9.128-0.646 5.812 1.716 24.784 1.81 28.878 0.242 10.644-0.016 20.27-2.594 30.642 0 0-3.128 9.378-8.028 12.202l-9.766 1.684-6.042 5.598c-24.336 14.972-50.414 4.478-64.378-1.188-20.128-6.54-32.862-35.006-23.968-77.118 1.512-7.2-3.942-10.41-3.58-14.338 0.772-8.58 0.94-29.212 9.046-34.294 0.756-0.474 6.508-1.912 6.47-1.52 0.792-8.352 1.598-16.718 2.392-25.072 2.018-5.556 6.876-6.162 8.286-14.006l-6.212-1.524c-2.368-5.032-6.402-14.32-10.758-19.248 7.922-3.362 15.942-6.802 23.828-10.194 9.194-3.942 18.31-7.87 27.060-11.556 4.022-1.694 8.31-3.186 12.85-4.756 17.234-5.968 38.69-13.394 46.652-36.486l0.8-2.33v-2.458c0-5.438 0.208-14.148 0.43-23.376 0.038-1.382 0.070-2.8 0.106-4.21h93.446c0.26 13.058-0.682 36.596-0.682 46.568z" />
<glyph unicode="&#xe01c;" glyph-name="untitled29" d="M662.27 763.25c7.354-29.596 8.090-32.062 7.404-62.45-0.276-11.71-7-65.872-5.172-82.484 1.502-13.702 4.92-14.79 10.324-26.082 9.41-19.648 6.26-46.752 2.65-66.564-1.976-10.84-6.152-26.272-12.496-35.122-6.994-9.752-20.996-9.826-27.184-21.204-8.918-16.39-3.882-39.384-9.504-57.080-6.386-20.066-22.65-21.476-23.876-47.734 7.972-1.124 15.924-2.268 23.876-3.406 7.98-16.968 22.594-51.104 37.518-61.376 12.5-3.41 25.010-6.822 37.504-10.226 43.814-17.964 92.502-39.464 136.408-57.974 39.982-16.868 87.854-22.878 102.302-64.792 0-28.458 2.686-95.698 1.952-132.994h-870.948c-0.734 37.296 1.948 104.536 1.948 132.994 14.452 41.914 62.32 47.926 102.302 64.792 43.906 18.51 92.594 40.010 136.402 57.974 12.5 3.404 25.012 6.816 37.508 10.226 14.922 10.272 29.54 44.406 37.52 61.376l17.754 4.316c-4.034 22.412-17.908 24.156-23.69 40.020-2.268 23.864-4.538 47.742-6.816 71.612 0.11-1.126-16.326 2.994-18.476 4.342-23.16 14.512-23.632 73.446-25.862 97.956-1.016 11.206 14.566 20.386 10.236 40.93-25.38 120.276 10.972 176.564 68.458 195.228 39.9 16.166 114.396 46.148 183.882 3.406l17.242-15.982 27.904-4.81c14-8.082 22.93-34.892 22.93-34.892z" />
<glyph unicode="&#xe01d;" glyph-name="untitled30" d="M356.864 636.57c6.266 0.394 12.536 0.738 18.81 1.060 6.332 0.326 12.668 0.62 18.996 0.87 1.898 0.080 3.79 0.196 5.68 0.318 4.382 0.27 8.958 0.55 13.668 0.382 1.148-0.040 2.308-0.054 3.468-0.054l7.514 0.054c0.004 0 0.012 0 0.016 0 1.864 0 3.7-0.026 5.532-0.112 5.23-0.242 10.792-0.796 17.504-1.748 8.984-1.272 17.856-2.944 26.438-4.564 3.102-0.584 5.964-1.128 8.832-1.648l2.438-0.452c7.64-1.418 15.532-2.882 22.766-2.882l1.386 0.016c8.004 0.21 16.704 1.858 25.118 3.456l8.356 1.576c9.906 1.87 20.062 3.788 30.36 5.064 10.2 1.268 19.89 1.372 30.606 1.372l3.864-0.002c4.046 0 7.894-0.268 11.604-0.528 2.112-0.146 4.2-0.296 6.292-0.384 5.508-0.226 11.028-0.486 16.542-0.774 5.632-0.288 11.266-0.6 16.882-0.952 1.086 21.544 4.684 52.244 4.884 60.524 0.648 28.738-0.042 31.064-7 59.054 0 0-8.446 25.366-21.684 33.002l-26.39 4.542-16.304 15.114c-65.714 40.43-136.16 12.070-173.894-3.22-51.88-16.84-85.516-66.124-67.636-169.416l5.352 0.332zM921.982 192.116c-13.668 39.636-58.936 45.322-96.748 61.27-41.522 17.512-87.566 37.84-128.996 54.832-11.824 3.22-23.652 6.446-35.474 9.674-14.116 9.714-27.934 41.994-35.48 58.042-7.524 1.074-15.040 2.152-22.582 3.218 1.168 24.836 16.54 26.168 22.582 45.146 5.316 16.734 0.554 38.482 8.988 53.974 5.854 10.76 19.092 10.832 25.708 20.054 6.004 8.372 9.952 22.968 11.82 33.216 3.384 18.586 6.328 43.96-2.316 62.504h-9.058c-0.488-0.804-1.36-2.888-2.754-8.236l-0.512-1.928c-3.086-22.058-12.68-40.528-27.024-52.028-12.168-9.744-27.848-14.894-45.34-14.894-3.824 0-7.702 0.256-11.522 0.766-12.474 1.654-24.184 6.084-33.868 12.814-4.544 3.16-8.944 6.394-12.918 11.19-3.238 3.906-6.036 8.364-8.796 14.018-1.632 3.336-3.008 6.708-4.228 9.682l-4.342 11.088c-0.176 0.458-0.496 1.274-0.832 1.986-0.14-0.366-0.29-0.818-0.422-1.376l-5.154-15.224c-3.28-7.91-7.134-15.932-13.888-22.962-8.224-8.576-19.118-15.020-31.504-18.64-7.72-2.258-15.75-3.406-23.864-3.406-13.696 0-26.632 3.316-37.418 9.584-15.96 9.284-27.24 25.254-32.598 46.188-0.75 2.916-1.566 5.816-2.38 8.724l-1.984 7.234c-0.82 3.090-1.516 5.726-2.548 7.226-0.010 0.014-0.022 0.032-0.032 0.044l-7.042 0.066c-2.648-4.868-5.148-9.080-4.734-13.646 2.108-23.18 2.554-78.908 24.458-92.634 2.036-1.274 17.574-5.17 17.476-4.106 2.152-22.57 4.3-45.16 6.44-67.726 5.468-15.002 18.594-16.65 22.408-37.84l-16.79-4.080c-7.548-16.048-21.368-48.328-35.482-58.042-11.82-3.228-23.652-6.454-35.476-9.674-41.422-16.992-87.472-37.32-128.994-54.832-37.812-15.948-83.078-21.634-96.75-61.27 0-26.916-2.536-90.498-1.84-125.766h823.644c0.7 35.272-1.834 98.854-1.834 125.77zM386.622 576.146c6.136-21.766 21.040-35.682 46.996-35.682 25.964 0 47.004 15.974 47.004 35.682 0 19.704 6.34 34.178-47.004 37.984-24.36 1.736-60.594 10.21-46.996-37.984zM584.322 614.128c-53.344-3.806-47.004-18.28-47.004-37.984 0-19.708 21.046-35.682 47.004-35.682 25.954 0 40.864 13.916 47 35.682 13.596 48.196-22.646 39.722-47 37.984z" />
<glyph unicode="&#xe01e;" glyph-name="untitled31" d="M677.478 283.594c-56.378 17.62-77.962 59.402-84.3 100.9 6.142 7.026 12.162 14.514 17.982 22.268 36.954-11.824 81.296-15.278 119.23 12.23-52.254 52.274-10.27 116.372-48.008 231.87-32.108 98.174-163.704 93.34-180.64 58.82-69.718 24.704-122.372-8.344-141.796-112.34-22.234-119.434 20.932-132.058-31.33-184.318 40.094-22.922 76.912-17.304 108.836-4.66 6.208-8.446 12.814-16.624 19.55-24.248-6.536-41.354-28.122-82.966-84.302-100.522-42.776-13.39-92.872-26.59-122.5-56.192-23.412-23.398-7.848-79.244-7.848-79.244h565.476c0 0 15.498 55.846-7.854 79.244-29.556 29.602-79.722 42.802-122.496 56.192zM941.122 259.864c-23.348 23.382-62.984 33.796-96.796 44.38-44.47 13.896-61.478 46.908-66.582 79.712 4.842 5.532 9.614 11.438 14.196 17.552 29.168-9.346 64.222-12.062 94.18 9.686-41.274 41.268-8.11 91.836-37.938 183.062-25.374 77.546-129.234 73.748-142.642 46.484-1.63 0.592-3.336 1.164-4.968 1.618 13.992-48.66 14.65-88.35 15.172-120.77 0.654-40.844 1.048-67.814 25.248-92.006l12.42-12.39-14.188-10.286c-20.142-14.584-43.362-22.476-69.132-23.668-3.466-22.012-12.426-44.088-31.588-60.34 11.508-11.216 25.96-19.554 43.492-25.036 4.12-1.286 8.304-2.562 12.556-3.876 40.618-12.504 86.662-26.67 116.028-56 10.858-10.808 15.372-25.812 16.806-40.698h119.948c-0.004 0.004 12.228 44.102-6.212 62.576zM355.696 293.988c4.186 1.312 8.372 2.59 12.558 3.876 11.71 3.676 22.106 8.682 31.128 14.98-29.696 16.46-42.246 43.82-46.5 71.114 0.716 0.718 1.374 1.532 2.024 2.336-11.512 2.924-22.76 7.464-33.748 13.728l-17.004 9.724 13.864 13.84c24.986 25.034 24.134 36.3 21.784 66.414-1.826 24.062-4.448 57 5.492 110.076 3.862 20.948 9.026 38.694 15.046 53.762-35.056 10.3-72.012 2.388-79.6-13.098-55.070 19.476-96.662-6.602-111.97-88.718-17.594-94.344 16.546-104.284-24.788-145.57 31.72-18.114 60.76-13.666 85.938-3.664 4.976-6.704 10.144-13.152 15.44-19.18-5.106-32.648-22.172-65.468-66.516-79.366-33.814-10.584-73.386-20.998-96.732-44.38-18.508-18.472-6.212-62.572-6.212-62.572h146.894c1.44 14.884 6.018 29.888 16.81 40.698 29.296 29.33 75.41 43.496 116.092 56z" />
<glyph unicode="&#xe01f;" glyph-name="untitled32" d="M514.012 283.67c-56.184 17.566-77.566 59.33-83.882 100.662 6.152 7.032 12.2 14.458 17.954 22.242 36.758-11.778 80.772-15.21 118.51 12.094-51.932 51.998-10.23 115.632-47.744 230.454-31.88 97.616-162.654 92.768-179.534 58.428-69.26 24.53-121.62-8.236-140.878-111.638-22.106-118.708 20.766-131.206-31.194-183.158 39.89-22.792 76.42-17.174 108.176-4.616 6.21-8.44 12.816-16.582 19.488-24.2-6.376-41.202-27.794-82.732-83.846-100.268-42.51-13.274-92.346-26.414-121.746-55.852-23.222-23.212-7.752-78.738-7.752-78.738h561.948c0 0 15.5 55.526-7.754 78.738-29.4 29.438-79.236 42.578-121.746 55.852zM720.688 309.708c-38.854 12.17-53.634 41.004-57.95 69.586 4.218 4.848 8.4 10.012 12.394 15.376 25.406-8.144 55.856-10.53 81.914 8.368-35.906 35.908-7.060 79.922-33.028 159.256-22.008 67.438-112.362 64.098-124.036 40.422-20.508 7.252-38.754 7.19-54.056-0.692 5.364-31.294 5.816-58.238 6.212-81.388 0.586-40.548 1.048-67.366 25.018-91.376l12.426-12.422-14.226-10.264c-6.084-4.416-12.49-8.174-19.196-11.384 4.216-5.622 8.6-11.048 13.112-16.152-4.41-28.518-19.228-57.232-57.944-69.33-4.054-1.244-8.172-2.526-12.298-3.792 6.020-3.072 12.46-5.756 19.428-7.982 4.118-1.238 8.238-2.544 12.454-3.824 40.458-12.392 86.24-26.522 115.442-55.694 6.148-6.148 10.234-13.67 12.918-21.716h150.948c0 0 10.728 38.33-5.362 54.414-20.34 20.344-54.776 29.406-84.17 38.594zM945.806 311.536c-13.998 14.068-37.742 20.28-58.016 26.618-26.782 8.376-36.952 28.294-39.958 47.942 2.906 3.398 5.816 6.94 8.568 10.638 17.458-5.602 38.518-7.24 56.44 5.754-24.718 24.748-4.84 55.104-22.756 109.804-15.182 46.536-77.474 44.244-85.486 27.894-23.776 8.376-43.296 2.584-55.848-19.55 2.344-17.786 2.676-33.384 2.874-47.056 0.484-30.184 1.374-45.33 15.956-59.95l12.464-12.42-5.66-4.058c2.876-3.928 5.918-7.658 8.958-11.182-3.010-19.658-13.21-39.44-39.894-47.816-9.514-2.968-19.756-5.95-29.432-9.676 3.468-1.698 7.126-3.274 11.152-4.476 2.812-0.918 5.656-1.766 8.566-2.686 28.454-8.734 60.696-18.608 81.722-39.598 2.286-2.354 4.182-4.97 5.822-7.686h128.22c0 0 7.428 26.456-3.692 37.504z" />
<glyph unicode="&#xe020;" glyph-name="untitled33" d="M876.976 153.2c-39.378 39.356-106.090 56.918-162.99 74.708-75.016 23.446-103.666 79.042-112.23 134.21 8.244 9.378 16.288 19.286 24.006 29.626 49.18-15.724 108.11-20.322 158.6 16.268-69.524 69.528-13.732 154.772-63.9 308.358-42.704 130.584-217.66 124.16-240.224 78.276-92.804 32.784-162.792-11.098-188.554-149.42-29.628-158.876 27.792-175.65-41.732-245.15 53.368-30.504 102.292-23.046 144.736-6.188 8.374-11.268 17.072-22.104 26.038-32.278-8.64-54.984-37.412-110.322-112.108-133.704-56.96-17.79-123.608-35.352-162.986-74.708-31.060-31.118-10.392-105.398-10.392-105.398h752.068c-0.004 0 20.732 74.282-10.332 105.4z" />
<glyph unicode="&#xe021;" glyph-name="untitled34" d="M757.188 742.824h-103.902v-104.494h24.042c-1.172-38.968-5.264-66.136-13.4-86.11-9.946-24.282-25.294-41.652-57.764-63.868-23.338-15.816-44.214-32.022-61.684-51.204v338.652h36.862l-64.396 110.582-64.39-110.582h36.844v-451.536c-17.312 18.83-37.946 34.79-60.962 50.374-32.46 22.214-47.816 39.588-57.764 63.868-9.064 22.234-13.086 53.412-13.662 99.824 20.972 10.252 35.452 31.736 35.452 56.65 0 34.84-28.238 63.082-63.084 63.082-34.834 0-63.084-28.242-63.084-63.082 0-24.988 14.57-46.526 35.646-56.736 0.626-49.304 4.394-86.966 17.62-120.252 14.484-36.578 40.94-64.12 77.994-88.962 33.542-22.708 55.692-42.312 70.016-67.228 9.352-16.244 16.092-35.87 19.676-62.148-41.074-11.292-71.294-48.79-71.294-93.444 0-53.584 43.438-97.004 97.014-97.004 53.554 0 96.992 43.42 96.992 97.004 0 42.522-27.406 78.558-65.476 91.654v72.886c0.598 49.444 8.748 80.762 22.554 104.774 14.338 24.89 36.464 44.502 70.024 67.218 37.038 24.838 63.498 52.376 77.99 88.958 11.976 30.16 16.19 63.894 17.354 106.63h24.786v104.494z" />
<glyph unicode="&#xe022;" glyph-name="untitled35" d="M374.308 606.284v-279.266c0-31.202 25.312-56.518 56.504-56.518h29.496v-237.872h102.292v237.872h29.496c31.23 0 56.574 25.316 56.574 56.518v279.266h-274.362zM578.89 483.388h-6.676c-0.39-10.326-1.568-18.834-4.642-26.618-4.056-10.266-11.544-17.986-21.584-24.65-8.762-5.958-14.258-10.932-17.722-16.972-3.4-5.896-5.492-13.71-5.656-26.458v-17.566c10.168-4.278 17.332-14.292 17.332-25.96 0-15.536-12.59-28.16-28.156-28.16-15.534 0-28.124 12.624-28.124 28.16 0 12.166 7.716 22.526 18.542 26.458-0.982 5.62-2.52 9.876-4.612 13.436-3.47 6.084-8.96 11.060-17.728 16.972-10.038 6.708-17.458 14.388-21.512 24.662-3.536 8.958-4.648 18.772-4.844 31.252-5.624 3.278-9.45 9.424-9.45 16.458 0 10.626 8.596 19.192 19.198 19.192 10.56 0 19.16-8.566 19.16-19.192 0-6.972-3.758-13.052-9.352-16.458 0.2-11.308 1.31-18.858 3.402-23.994 2.454-5.88 5.95-9.94 14.39-15.726 4.384-2.98 8.5-6.052 12.198-9.454v110.986h-11.542l21.35 36.696 21.354-36.696h-11.574v-81.034c3.792 3.432 7.912 6.542 12.43 9.548 8.368 5.82 11.868 9.876 14.32 15.792 1.832 4.382 2.91 10.53 3.27 19.326h-6.246v32.638h32.476v-32.638zM617.446 863.584h-211.974v-200.86h211.974v200.86zM485.096 710.338h-34.892v52.29h34.892v-52.29zM570.778 710.338h-34.922v52.29h34.922v-52.29z" />
<glyph unicode="&#xe023;" glyph-name="untitled36" d="M915.83 475.556h-377.724l-0.008 156.832c0 66.554-25.26 127.648-67.076 172.35-41.64 44.714-101.158 73.512-166.782 73.462-65.628 0.048-125.14-28.75-166.782-73.462-41.83-44.702-67.082-105.794-67.094-172.35v-207.718h122.016v26.952l-71.312 71.312h71.312v109.456c0 35.53 13.434 66.812 34.168 89.004 20.926 22.18 47.854 34.74 77.69 34.788 29.832-0.048 56.75-12.608 77.674-34.788 20.75-22.192 34.184-53.476 34.174-89.004v-156.832h-52.378c-18.318 0-33.164-14.852-33.164-33.17v-389.060c0-18.316 14.846-33.166 33.164-33.166h552.12c18.328 0 33.174 14.85 33.174 33.166v389.060c0.002 18.318-14.844 33.168-33.172 33.168z" />
<glyph unicode="&#xe024;" glyph-name="untitled37" d="M510.352 893.912c-244.836 0-444.028-199.192-444.028-444.034 0-244.834 199.192-444.028 444.028-444.028 244.842 0 444.040 199.194 444.040 444.028-0.002 244.842-199.198 444.034-444.040 444.034zM510.352 843.826c217.574 0 393.964-176.374 393.964-393.948 0-26.958-2.732-53.272-7.882-78.7-25.45-80.13-100.398-138.2-188.93-138.2-109.496 0-198.274 88.754-198.274 198.246 0 109.488-88.758 198.248-198.252 198.248-95.33 0-174.896-67.302-193.884-156.984 11.726 207.048 183.284 371.338 393.258 371.338z" />
<glyph unicode="&#xe025;" glyph-name="untitled38" d="M728.52 595.208c25.376 0.162 50.036-3.894 73.32-11.942-18.182 19.74-38.002 37.222-59.192 52.132-68.118 48.424-147.358 69.73-223.192 69.618-89.568-0.21-176.030-28.264-248.696-78.322l-127.11 127.094-44.766-468.182 468.154 44.832-129.492 129.524c96.568 85.608 198.036 134.846 290.974 135.246zM925.774 138.558v70.848c0 78.438-10.328 148.516-30.54 210.484-1.536 4.676-3.144 9.25-4.808 13.848-5.984 12.77-12.554 24.332-19.588 34.654-36.952 53.658-84.238 76.466-142.318 76.944-56.276 0.294-123.054-23.976-191.434-70.524 16.184-1.612 31.524-5.408 45.586-11.3 28.518-12.354 53.238-31.78 74.988-69.718 21.418-37.88 38.782-96.822 38.812-184.384v-70.848h229.302z" />
<glyph unicode="&#xe026;" glyph-name="untitled39" d="M535.418 817.846v58.044h-51.44v-58.044c-229.186-13.326-410.948-203.37-410.948-435.904h9.268c14.828 41.43 54.312 71.118 100.832 71.118 46.516 0 86.002-29.688 100.834-71.118h16.046c14.832 41.43 54.312 71.118 100.834 71.118 34.006 0 64.208-15.912 83.812-40.632v-296.402c0.012-51.338 41.604-92.91 92.93-92.922 51.314 0.012 92.908 41.584 92.92 92.922 0 13.834-11.212 25.036-25.044 25.036-13.826 0-25.038-11.202-25.038-25.036-0.046-23.652-19.196-42.806-42.838-42.838-23.656 0.032-42.802 19.186-42.856 42.838v296.392c19.604 24.728 49.81 40.64 83.822 40.64 46.52 0 86.004-29.688 100.836-71.118h16.044c14.834 41.43 54.314 71.118 100.834 71.118 46.518 0 86.004-29.688 100.832-71.118h9.264c0.004 232.536-181.754 422.584-410.944 435.906z" />
<glyph unicode="&#xe027;" glyph-name="untitled40" d="M512.032 861.408c-234.304 0-424.224-189.92-424.224-424.192 0-160.64 89.312-300.384 220.992-372.384v95.232c-85.312 62.688-140.992 163.424-140.992 277.152 0 189.792 154.4 344.192 344.224 344.192 189.792 0 344.16-154.4 344.16-344.192 0-113.76-55.68-214.496-140.992-277.184v-95.2c131.68 72 220.992 211.744 220.992 372.384 0 234.272-189.888 424.192-424.16 424.192zM523.872 599.872c-3.040 3.328-7.328 5.216-11.808 5.216s-8.768-1.888-11.808-5.216l-164.576-180.256c-4.288-4.672-5.376-11.424-2.816-17.248 2.528-5.792 8.288-9.536 14.624-9.536h69.376v-342.24c0-8.832 7.168-16 16-16h158.272c8.832 0 16 7.168 16 16v342.208h69.344c6.336 0 12.096 3.744 14.624 9.536 2.56 5.792 1.472 12.544-2.816 17.248l-164.416 180.288z" />
<glyph unicode="&#xe028;" glyph-name="untitled41" d="M889.44 529.44h-754.88c-22.080 0-40 17.92-40 40v260.768c0 22.080 17.92 40 40 40h754.88c22.080 0 40-17.92 40-40v-260.768c0-22.112-17.92-40-40-40zM174.56 609.44h674.88v180.768h-674.88v-180.768zM545.568 178.048c0 13.696 1.408 27.008 3.872 40h-374.88v180.768h674.88v-24.992c31.424-14.304 58.848-35.936 80-62.72v127.712c0 22.080-17.92 40-40 40h-754.88c-22.080 0-40-17.92-40-40v-260.768c0-22.080 17.92-40 40-40h414.88c-2.464 12.992-3.872 26.304-3.872 40zM760.672 330.304c-83.936 0-152.224-68.32-152.224-152.256s68.288-152.256 152.224-152.256 152.256 68.32 152.256 152.256-68.288 152.256-152.256 152.256zM852.704 169.376c0-8.064-6.528-14.592-14.592-14.592h-54.144v-54.176c0-8.064-6.528-14.592-14.592-14.592h-17.376c-8.064 0-14.592 6.528-14.592 14.592v54.176h-54.144c-8.064 0-14.592 6.528-14.592 14.592v17.344c0 8.064 6.528 14.592 14.592 14.592h54.144v54.176c0 8.064 6.528 14.592 14.592 14.592h17.376c8.064 0 14.592-6.528 14.592-14.592v-54.176h54.144c8.064 0 14.592-6.528 14.592-14.592v-17.344z" />
<glyph unicode="&#xe029;" glyph-name="untitled42" d="M881.248 256.672c-0.384 0.352-378.496 334.784-378.496 334.784 6.176 19.552 9.44 40.16 9.44 61.28 0 54.112-21.056 104.992-59.328 143.264s-89.12 59.328-143.264 59.328c-25.44 0-50.112-4.832-73.12-13.76l109.696-109.728v-115.712h-115.68l-109.632 109.664c-27.936-72.512-12.864-157.952 45.504-216.32 38.24-38.24 89.12-59.328 143.264-59.328 18.624 0 36.8 2.656 54.24 7.488 0 0 333.44-378.016 334.944-379.52 24.128-24.128 56.192-37.408 90.304-37.408 34.176 0 66.24 13.312 90.368 37.44 49.152 49.12 49.568 128.544 1.76 178.528zM789.632 116.768c-28.576 0-51.68 23.168-51.68 51.712s23.136 51.712 51.68 51.712c28.512 0 51.68-23.168 51.68-51.712s-23.2-51.712-51.68-51.712z" />
<glyph unicode="&#xe02a;" glyph-name="untitled43" d="M368.64 473.216c46.272-85.184 103.328-103.072 143.040-103.072 39.648 0 96.704 17.856 143.36 102.848l3.104 5.632c25.024 45.44 41.568 75.456 41.568 146.144 0 111.232-22.336 224.896-188.032 224.896-186.944 0-186.944-151.904-186.944-224.896 0-70.752 16.352-100.864 41.088-146.4l2.816-5.152zM904.672 219.616l-208.384 93.344c-6.080 2.688-12.992 2.784-19.136 0.224l-107.872-45.376h-114.304l-107.904 45.056c-6.080 2.56-12.96 2.464-19.040-0.224l-208.672-93.12c-8.672-3.872-14.208-12.448-14.208-21.92v-127.264c0-13.248 10.752-24 24-24h765.696c13.248 0 24 10.752 24 24v127.392c0 9.44-5.568 18.016-14.176 21.888z" />
<glyph unicode="&#xe02b;" glyph-name="untitled44" d="M902.112 814.848h-780.224c-21.44 0-38.848-17.376-38.848-38.848v-656c0-21.44 17.376-38.848 38.848-38.848h780.256c21.44 0 38.848 17.376 38.848 38.848v656c-0.032 21.44-17.44 38.848-38.88 38.848zM863.296 158.848h-702.592v578.304h702.56v-578.304zM244.448 227.808h535.136c12.224 0 22.944 8.192 26.112 20 3.232 11.808-1.888 24.288-12.448 30.464l-222.976 130.72c-9.984 5.856-22.56 4.736-31.36-2.848l-54.528-47.008-105.472 90.656c-5.888 5.056-13.632 7.232-21.312 6.304-7.68-1.056-14.528-5.344-18.848-11.776l-116.8-174.336c-5.568-8.32-6.112-19.008-1.376-27.84 4.672-8.8 13.856-14.336 23.872-14.336zM640.384 563.488c0-45.349 36.763-82.112 82.112-82.112s82.112 36.763 82.112 82.112v0c0 45.349-36.763 82.112-82.112 82.112s-82.112-36.763-82.112-82.112v0z" />
<glyph unicode="&#xe02c;" glyph-name="untitled45" d="M820.96 663.2l-186.624 186.624c-15.008 15.008-35.328 23.424-56.576 23.424h-318.144c-44.192 0-80-35.808-80-80v-690.496c0-44.192 35.808-80 80-80h504.736c44.192 0 80 35.808 80 80v503.872c0.032 21.216-8.384 41.568-23.392 56.576zM259.616 102.752v690.496h302.176l0.128-0.384c0.16-0.608 17.28-62.56-12.256-176.128-1.568-5.984 0.448-12.32 5.088-16.32 4.672-4.032 11.264-5.024 16.896-2.592 125.056 53.568 189.408-6.72 192.672-9.952v-485.152h-504.704z" />
<glyph unicode="&#xe02d;" glyph-name="untitled46" d="M903.872 529.472l-76.16 27.104c-4.448 12.928-9.728 25.6-15.712 37.888l34.688 72.992c5.824 12.224 3.296 26.784-6.272 36.352l-72.576 72.608c-9.536 9.568-24.128 12.128-36.384 6.272l-72.992-34.72c-12.288 6.016-24.96 11.264-37.92 15.712l-27.072 76.16c-4.544 12.768-16.64 21.28-30.144 21.28h-102.656c-13.536 0-25.632-8.544-30.144-21.28l-27.072-76.16c-12.928-4.448-25.632-9.696-37.92-15.712l-72.992 34.72c-12.256 5.856-26.848 3.296-36.384-6.272l-72.576-72.608c-9.568-9.568-12.096-24.128-6.272-36.352l34.72-72.992c-6.016-12.32-11.296-24.96-15.712-37.92l-76.16-27.072c-12.736-4.544-21.28-16.64-21.28-30.144v-102.656c0-13.536 8.512-25.6 21.28-30.144l76.128-27.072c4.448-12.928 9.696-25.6 15.712-37.92l-34.72-73.024c-5.824-12.224-3.296-26.784 6.272-36.352l72.576-72.576c9.536-9.568 24.128-12.032 36.352-6.272l72.992 34.72c12.32-6.016 24.992-11.296 37.92-15.744l27.072-76.128c4.544-12.768 16.608-21.28 30.144-21.28h102.656c13.536 0 25.6 8.512 30.144 21.28l27.104 76.128c12.928 4.448 25.6 9.728 37.888 15.744l72.992-34.72c12.224-5.792 26.816-3.296 36.352 6.272l72.576 72.576c9.568 9.568 12.096 24.128 6.272 36.352l-34.688 72.992c6.016 12.288 11.264 24.992 15.712 37.92l76.128 27.072c12.768 4.544 21.28 16.608 21.28 30.144v102.656c0.096 13.536-8.416 25.632-21.152 30.176zM512 298.976c-82.272 0-149.024 66.688-149.024 149.024s66.72 149.024 149.024 149.024 149.024-66.688 149.024-149.024-66.752-149.024-149.024-149.024z" />
<glyph unicode="&#xe02e;" glyph-name="untitled47" d="M512.418 80.506c110.14 0 199.41 44.604 199.41 99.736h-398.89c0-55.132 89.338-99.736 199.48-99.736zM921.056 816.212h-817.282c-13.602 0-24.658-11.020-24.658-24.654v-537.020c0-13.606 11.056-24.65 24.658-24.65h817.284c13.604 0 24.592 11.044 24.592 24.65v537.020c-0.002 13.636-10.99 24.654-24.594 24.654zM885.808 289.708h-746.844v466.656h746.844v-466.656z" />
<glyph unicode="&#xe02f;" glyph-name="untitled48" d="M924.692 811.682h-823.75c-13.606 0-24.656-11.018-24.656-24.686v-563.396c0-13.606 11.050-24.648 24.656-24.648h823.75c13.672 0 24.658 11.042 24.658 24.648v563.396c0 13.668-10.986 24.686-24.658 24.686zM712.788 397.082c0-25.508-17.596-57.706-39.108-71.452 0 0-83.72-53.56-235.196-53.56-151.404 0-235.124 53.56-235.124 53.56-21.516 13.746-39.112 45.944-39.112 71.452v215.542c0 25.574 17.596 57.724 39.112 71.49 0 0 83.72 53.572 235.124 53.572 151.474 0 235.196-53.572 235.196-53.572 21.512-13.766 39.108-45.916 39.108-71.49v-215.542zM840.132 483.716c-20.738 0-37.546 16.81-37.546 37.538 0 20.73 16.808 37.486 37.546 37.486 20.724 0 37.472-16.756 37.472-37.486 0.002-20.726-16.746-37.538-37.472-37.538zM840.132 614.060c-20.738 0-37.546 16.818-37.546 37.474 0 20.738 16.808 37.548 37.546 37.548 20.724 0 37.472-16.81 37.472-37.548 0.002-20.656-16.746-37.474-37.472-37.474zM213.368 85.012h575.16v61.286h-575.16v-61.286z" />
<glyph unicode="&#xe030;" glyph-name="untitled49" d="M563.386 278.156v83.95c-16.32-3.63-33.23-5.526-50.594-5.526-17.72 0-35.054 2.034-51.7 5.756v-85.522c-0.72-56.534-46.726-102.156-103.498-102.156h-6.474v-61.312h322.24v61.312h-6.408c-57.23 0-103.566 46.338-103.566 103.498zM847.202 722.38l-1.178 24.528h-147.68v36.49h-371.1v-36.552h-147.61l-1.246-24.368c0-0.358-0.128-2.906-0.128-7.056 0.128-17.24 1.634-63.026 22.826-108.088 10.658-22.432 26.75-44.928 50.686-61.776 23.348-16.442 53.894-26.64 90.65-27.072 28.452-65.958 93.982-112.070 170.372-112.070 76.328 0 141.93 46.112 170.378 112.070 36.692 0.432 67.3 10.63 90.65 27.072 36.038 25.41 53.892 62.762 63.176 95.26 9.29 32.704 10.302 61.686 10.302 74.63 0 4.124-0.098 6.542-0.098 6.932zM281.338 587.65c-22.504 15.632-35.914 41.298-43.268 67.298-4.22 14.618-6.344 29.004-7.42 40.488h96.594v-103.466c0-7.132 0.46-14.198 1.246-21.124-20.178 2.282-35.124 8.508-47.152 16.804zM778.010 629.446c-7.884-16.584-18.708-31.204-33.75-41.794-12.002-8.296-27.016-14.522-47.154-16.804 0.784 6.928 1.238 13.992 1.238 21.124v103.466h96.57c-1.73-18.224-6.148-43.696-16.904-65.992z" />
<glyph unicode="&#xe031;" glyph-name="untitled50" d="M813.132 512.504c0 42.74-19.128 80.962-49.314 106.67 3.398 12.362 5.232 25.346 5.232 38.816 0 80.15-64.422 145.232-144.278 146.372-16.156 44.248-58.606 75.9-108.442 75.9-49.838 0-92.32-31.652-108.438-75.9-79.924-1.138-144.346-66.22-144.346-146.372 0-11.868 1.506-23.416 4.152-34.506-33.254-25.568-54.706-65.79-54.706-110.98 0-64.422 43.62-118.708 102.88-134.998 0.198-4.962 0.39-10.098 0.39-15.368 0-45.526 57.952-82.404 129.37-82.404 1.172 0 2.32 0 3.498 0.030v-263.286h131.788v263.286c1.506-0.030 2.972-0.030 4.482-0.030 71.452 0 129.366 36.878 129.366 82.404 0 5.662-0.066 11.186-0.388 16.548 57.162 17.59 98.754 70.896 98.754 133.818z" />
<glyph unicode="&#xe032;" glyph-name="untitled51" d="M245.688 8.962h526.29v559.632h-526.29v-559.632zM608.25 456.542c0 16.996 13.782 30.772 30.79 30.772 16.988 0 30.77-13.776 30.77-30.772v-324.256c0-16.992-13.782-30.788-30.77-30.788-17.008 0-30.79 13.794-30.79 30.788v324.256zM478.048 456.536c0 16.992 13.784 30.784 30.78 30.784 16.992 0 30.784-13.792 30.784-30.784v-324.25c0-16.992-13.792-30.782-30.784-30.782-16.996 0-30.78 13.79-30.78 30.782v324.25zM347.852 456.536c0 17.002 13.79 30.784 30.778 30.784 16.996 0 30.782-13.782 30.782-30.784v-324.254c0-16.996-13.786-30.778-30.782-30.778-16.988 0-30.778 13.782-30.778 30.778v324.254zM798.040 779.54h-114.418v18.72c-0.008 49.884-40.418 90.29-90.296 90.304h-168.996c-49.882-0.014-90.29-40.418-90.306-90.304v-18.72h-114.4c-23.488 0-42.546-19.052-42.546-42.55v-112.696h663.512v112.696c-0.004 23.496-19.054 42.55-42.55 42.55zM622.062 779.54h-226.492l-0.008 18.72c0.046 15.876 12.89 28.718 28.766 28.744h168.996c15.858-0.026 28.718-12.866 28.738-28.744v-18.72z" />
<glyph unicode="&#xe033;" glyph-name="untitled52" d="M247.6 8.542h526.284l50.47 575.266h-627.222l50.468-575.266zM850.040 779.108h-164.504v18.734c-0.022 49.886-40.418 90.288-90.292 90.292h-169.004c-49.89-0.004-90.288-40.404-90.312-90.292v-18.734h-164.48c-23.492 0-42.546-19.050-42.546-42.544v-102.676h763.682v102.676c0 23.492-19.052 42.544-42.544 42.544zM623.984 779.108h-226.492v18.734c0.018 15.86 12.882 28.71 28.746 28.752h169.004c15.856-0.042 28.708-12.892 28.742-28.752v-18.734z" />
<glyph unicode="&#xe034;" glyph-name="untitled53" d="M876.948 725.8c0 73.71-100.476 97.036-133.492 104.696-62.46 14.5-144.668 22.484-231.46 22.484-86.79 0-168.992-7.984-231.454-22.484-33.016-7.66-133.488-30.984-133.488-104.696 0-26.898 19.21-49.286 44.656-54.254l106.64-503.774c-7.734-8.766-12.46-20.242-12.46-32.852 0-39.934 31.796-66.942 94.504-80.278 35.29-7.5 82.028-11.624 131.602-11.624 49.578 0 96.316 4.124 131.606 11.624 62.708 13.336 94.504 40.344 94.504 80.278 0 12.61-4.73 24.086-12.464 32.852l106.652 503.774c25.438 4.97 44.654 27.356 44.654 54.254zM251.596 700.688c0.868 1.696 1.676 3.414 2.364 5.2 6.618 3.68 17.598 7.882 32.618 12.094l152.214-71.61-159.118-78.324-28.078 132.64zM506.186 614.664l165.278-77.762-159.464-76.372-161.656 77.418 155.842 76.716zM444.612 428.262l-122.89-58.856-27.726 130.988 150.616-72.132zM511.998 395.988l138.558-66.356-138.558-66.36-138.554 66.36 138.554 66.356zM444.616 231l-84.98-40.696-19.172 90.582 104.152-49.886zM511.998 198.734l101.512-48.618c-24.344-4.254-59.14-7.648-101.516-7.648-42.372 0-77.164 3.394-101.508 7.648l101.512 48.618zM664.354 190.308l-84.974 40.692 104.148 49.878-19.174-90.57zM702.272 369.41l-122.886 58.852 150.614 72.128-27.728-130.98zM573.006 647.554l150.446 74.050c22.328-5.378 38.070-10.984 46.586-15.718 0.688-1.786 1.5-3.504 2.364-5.2l-28.29-133.632-171.106 80.5zM623.592 737.336l-117.98-58.074-120.184 56.546c35.93 3.976 78.312 6.57 126.566 6.57 41.722 0 79.028-1.944 111.598-5.042z" />
<glyph unicode="&#xe035;" glyph-name="untitled54" d="M755.494 262.51v477.706c0 0-10.698 126.68-242.71 126.68-232.054 0-242.716-126.62-242.716-126.62v-477.768c0-26.692 20.144-48.3 44.968-48.3h97.418l-136.758-186.068h76.062l23.806 32.398h278.062l23.61-32.398h75.84l-135.582 186.068h93.002c24.85 0 44.998 21.61 44.998 48.302zM420.628 121.856l24.39 33.164h139.738l24.196-33.164h-188.324zM479.748 832.074h65.994c20.668 0 37.41-16.774 37.41-37.444 0-20.636-16.742-37.376-37.41-37.376h-65.994c-20.632 0-37.374 16.74-37.374 37.376 0 20.668 16.742 37.444 37.374 37.444zM336.712 690.87c0 12.98 13.016 23.51 29.072 23.51h294.020c16.026 0 29.042-10.53 29.042-23.51v-164.432c0 0-26.224-45.156-176.062-45.156-149.842 0-176.070 45.2-176.070 45.2v164.388zM335.8 325.818c0 30.144 24.46 54.61 54.61 54.61 30.152 0 54.61-24.464 54.61-54.61 0-30.154-24.458-54.614-54.61-54.614-30.15 0.002-54.61 24.46-54.61 54.614zM639.27 271.206c-30.12 0-54.544 24.458-54.544 54.614 0 30.144 24.426 54.61 54.544 54.61 30.184 0 54.614-24.464 54.614-54.61-0.002-30.156-24.43-54.614-54.614-54.614z" />
<glyph unicode="&#xe036;" glyph-name="untitled55" d="M649.454 468.898l179.042 147.766-179.042 147.77v-96.4h-368.352v-102.724h368.35v-96.412zM371.854 427.864l-179.042-147.764 179.042-147.774v96.414h367.522v102.726h-367.522v96.398z" />
<glyph unicode="&#xe037;" glyph-name="untitled56" d="M393.722 443.592l178.284 147.164-178.284 147.148v-96.008h-316.914v-102.294h316.914v-96.010zM631.53 452.622l-178.288-147.166 178.288-147.148v96.012h316.092v102.292h-316.092v96.010z" />
<glyph unicode="&#xe038;" glyph-name="untitled57" d="M737.856 82.146v423.584c0 0-60.432 22.008-60.432 308.602h-48.136c0 0 11.964-201.208-109.548-201.208h-17.008c-121.516 0-109.548 201.208-109.548 201.208h-48.204c0-286.592-60.436-308.602-60.436-308.602v-423.584h453.312z" />
<glyph unicode="&#xe039;" glyph-name="untitled58" d="M335.128 484.234c0.196-0.196 0.36-0.414 0.558-0.614l83.164-83.162 29.008 29.008-45.466 45.474 72.568 72.566 9.57-1.064c2.442-0.28 4.936-0.416 7.418-0.416 5.012 0 9.92 0.616 14.692 1.682l-53.428 53.434c-1.078 1.082-2.244 2.034-3.37 3.048 16.466 59.192 1.476 125.3-45.072 171.844-46.202 46.208-111.68 61.308-170.54 45.424l99.728-99.722-26.184-97.698-97.7-26.19-99.728 99.732c-15.888-58.87-0.772-124.354 45.43-170.552 48.516-48.522 118.306-62.756 179.352-42.794zM629.804 424.544c-1.624-7.156-2.060-14.63-1.224-22.158l1.062-9.566-72.564-72.566-45.472 45.472-29.012-29.012 263.252-263.264c16.232-16.226 37.498-24.336 58.77-24.336 21.264 0 42.532 8.11 58.752 24.336 32.462 32.458 32.462 85.074 0 117.524l-233.564 233.57zM833.062 100.73l-41.754-11.188-33.876 33.88 11.19 41.746 41.758 11.194 33.874-33.878-11.192-41.754zM511.908 393.748l45.484-45.482 51.594 51.594c-2.798 25.172 5.396 51.324 24.692 70.614 19.288 19.29 45.442 27.48 70.604 24.692l225.592 225.592-126.362 126.354-225.586-225.592c2.796-25.164-5.402-51.316-24.692-70.614-19.292-19.292-45.444-27.48-70.614-24.684l-51.588-51.598 45.462-45.466-222.91-222.912-8.154 8.156-42.792-34.466-71.974-113.664 18.374-18.378 113.676 71.97 34.456 42.792-8.184 8.176 222.922 222.916z" />
<glyph unicode="&#xe03a;" glyph-name="untitled59" d="M802.954 689.992c-57.816 57.806-129.624 92.904-204.578 105.498v81.482h-131.788v-82.47c-38.522-7.030-76.126-20.076-111.318-39.174l-66.97 66.902 22.76 22.76-43.37 43.374-192.802-192.816 43.362-43.37 27.074 27.142 64.16-64.154c-86.204-145.262-66.774-335.65 58.148-460.564 147.808-147.786 387.512-147.786 535.32 0 147.884 147.8 147.884 387.512 0.002 535.39zM721.724 235.892c-102.814-102.82-270.052-102.82-372.862 0-102.754 102.752-102.754 269.984 0 372.87 102.808 102.746 270.046 102.746 372.862 0 102.748-102.886 102.748-270.118 0-372.87zM667.894 452.766l-118.902 1.902-129.882 129.892c-12.758 12.744-33.36 12.744-46.114 0-12.75-12.662-12.75-33.358 0-46.116l148.598-148.534 145.262-2.284c9.282-0.168 17.592 3.462 23.61 9.484 5.752 5.818 9.41 13.728 9.55 22.56 0.262 17.994-14.064 32.876-32.122 33.096z" />
<glyph unicode="&#xe03b;" glyph-name="untitled60" d="M510.338 884.568c240.798 0 435.998-195.204 435.998-435.998 0-240.788-195.2-435.992-435.998-435.992-240.794 0-435.996 195.206-435.996 435.992 0 240.796 195.202 435.998 435.996 435.998M510.338 752.222c-167.432 0-303.652-136.216-303.652-303.652 0-167.43 136.22-303.652 303.652-303.652s303.652 136.222 303.652 303.652c0 167.436-136.22 303.652-303.652 303.652v0zM589.25 313.14l-116.468 120.226v242.008c0 20.742 16.81 37.55 37.558 37.55v0c20.742 0 37.56-16.81 37.56-37.55v0l-0.010-211.586 95.308-98.388c14.434-14.894 14.060-38.668-0.848-53.106v0c-7.292-7.062-16.71-10.578-26.128-10.578v0c-9.806-0.002-19.608 3.816-26.972 11.424v0z" />
<glyph unicode="&#xe03c;" glyph-name="untitled61" d="M737.262 760.658l-86.036 28.186c-8.108-21.334-21.618-39.658-38.294-53.666-27.012-22.886-62.294-35.688-99.902-35.7-37.574 0.010-72.826 12.834-99.772 35.628-16.744 14.044-30.252 32.402-38.39 53.738l-86.004-28.186-154.156-134.044 61.346-83h99.018v-440.108h435.984v440.106l98.952 0.022 61.41 82.978-154.156 134.046z" />
<glyph unicode="&#xe03d;" glyph-name="untitled62" d="M504.526 498.074h-319.366v-102.292h319.366v-96.014l178.32 147.152-178.32 147.164v-96.010zM737.95 664.194v-429.634h102.36v429.634h-102.36zM314.918 449.382" />
<glyph unicode="&#xe03e;" glyph-name="untitled63" d="M844.888 392.6v191.652c0 27.656-22.42 50.078-50.076 50.078h-564.94c-27.656 0-50.076-22.422-50.076-50.078v-191.652h-104.12v-130.802h873.328v130.802h-104.116z" />
<glyph unicode="&#xe03f;" glyph-name="untitled64" d="M275.982 795.382l-58.406-58.41-58.408 58.41-52.726-52.722 58.412-58.41-58.412-58.41 52.726-52.722 58.408 58.406 58.406-58.406 52.728 52.722-58.412 58.41 58.412 58.41zM275.982 323.156l-58.406-58.41-58.408 58.41-52.726-52.726 58.412-58.414-58.412-58.41 52.726-52.724 58.408 58.408 58.406-58.408 52.728 52.724-58.412 58.41 58.412 58.414zM917.558 521.016l-52.722 52.73-58.412-58.41-58.412 58.41-52.726-52.73 58.412-58.406-58.412-58.41 52.726-52.728 58.412 58.414 58.412-58.414 52.722 52.728-58.408 58.41zM646.938 291.040c-70.408 0-127.488-57.078-127.488-127.484 0-70.414 57.080-127.5 127.488-127.5 70.414 0 127.492 57.086 127.492 127.5 0 70.404-57.078 127.484-127.492 127.484zM646.938 110.628c-29.18 0-52.922 23.734-52.922 52.926 0 29.18 23.742 52.922 52.922 52.922 29.184 0 52.926-23.742 52.926-52.922 0-29.19-23.74-52.926-52.926-52.926zM447.68 483.528l225.224 225.226 56.046-56.042 42.424 207.234-207.24-42.426 56.044-56.046-251.584-251.576c-14.56-14.57-14.56-38.172 0-52.734l143.050-143.042 52.722 52.718-116.686 116.688z" />
<glyph unicode="&#xe040;" glyph-name="untitled65" d="M792.044 791.934l-216.782-0.006-406.652-404.536 281.284-281.292 399.734 399.74v228.504l-57.584 57.59zM776.244 636.478c-22.674-22.678-59.44-22.678-82.116 0-22.68 22.668-22.68 59.436 0 82.11 22.672 22.688 59.442 22.688 82.116 0.008 22.674-22.682 22.676-59.448 0-82.118z" />
<glyph unicode="&#xe041;" glyph-name="untitled66" d="M822.824 707.242h-216.784l-406.656-404.536 281.29-281.298 399.738 399.74v228.51l-57.588 57.584zM807.022 551.792c-22.672-22.676-59.44-22.676-82.116 0-22.68 22.674-22.68 59.44 0 82.108 22.676 22.688 59.444 22.688 82.116 0.008 22.674-22.678 22.676-59.444 0-82.116zM574.472 738.97l13.098 13.036h235.258v63.842l-57.586 57.592-216.784-0.012-406.652-404.536 80.374-80.378z" />
<glyph unicode="&#xe042;" glyph-name="untitled67" d="M736.51 698.846h-7.648l-34.010 81.392h-364.496l-34.008-81.392h-7.72c-13.73 0-24.916-11.184-24.916-24.928 0-13.792 11.186-24.98 24.916-24.98h447.882c13.804 0 24.986 11.188 24.986 24.98 0 13.744-11.182 24.928-24.986 24.928zM637.362 700.606h-30.214c-13.344 0-24.134 10.724-24.134 24.14 0 13.336 10.792 24.192 24.134 24.192h30.214c13.336 0 24.134-10.856 24.134-24.192 0-13.416-10.798-24.14-24.134-24.14zM351.026 117.664h323.156l47.938 484.046h-419.036l47.942-484.046z" />
<glyph unicode="&#xe043;" glyph-name="untitled68" d="M646.778 446.968c0-74.054-60.036-134.092-134.084-134.092-74.052 0-134.088 60.038-134.088 134.092 0 74.050 60.036 134.076 134.088 134.076 74.048 0 134.084-60.024 134.084-134.076zM143.086 446.968c0.034 204.156 165.454 369.562 369.604 369.612v0c204.148-0.050 369.562-165.458 369.608-369.612v0c-0.044-204.146-165.458-369.558-369.608-369.6v0c-204.15 0.042-369.57 165.454-369.604 369.6v0zM335.458 624.188c-45.452-45.542-73.378-107.812-73.41-177.218v0c0.032-69.396 27.958-131.678 73.41-177.224v0c45.55-45.442 107.828-73.366 177.23-73.4v0c69.4 0.036 131.678 27.958 177.232 73.4v0c45.45 45.546 73.376 107.828 73.41 177.224v0c-0.036 69.406-27.972 131.676-73.41 177.218v0c-45.554 45.456-107.832 73.39-177.232 73.414v0c-69.402-0.024-131.678-27.96-177.23-73.414v0z" />
<glyph unicode="&#xe044;" glyph-name="untitled69" d="M512.78 840.404c-216.646 0-392.288-175.642-392.288-392.33 0-216.648 175.642-392.314 392.288-392.314 216.676 0 392.29 175.666 392.29 392.314 0 216.688-175.612 392.33-392.29 392.33zM519.648 162.106c-43.332 0-78.486 35.186-78.486 78.55 0 33.874 21.452 62.592 51.506 73.64v223.88h49.87v-222.442c32.178-9.74 55.626-39.694 55.626-75.078 0-43.364-35.152-78.55-78.516-78.55zM718.41 458.346c-0.984 55.56-23.742 105.536-60.238 142.15-37.508 37.348-88.786 60.372-145.884 60.372v50.3c-0.26 0-0.552 0.030-0.81 0.030-69.886-0.030-132.904-28.28-178.75-74.070-45.82-45.788-74.106-108.866-74.106-178.782h-45.454c0.030 164.784 133.55 298.336 298.308 298.336 159.71 0 290.060-125.408 297.97-283.224 0.328-4.976 0.49-9.974 0.592-15.112h-91.628z" />
<glyph unicode="&#xe045;" glyph-name="untitled70" d="M653.156 440.694v273.292c0 77.434-62.986 140.426-140.42 140.426-77.406 0-140.358-62.992-140.358-140.426v-273.292c-52.75-42.218-84.304-106.57-84.304-175.374 0-123.904 100.79-224.7 224.662-224.7 123.87 0 224.66 100.794 224.66 224.7-0.002 68.804-31.528 133.154-84.24 175.374zM512.736 101.946c-90.224 0-163.344 73.122-163.344 163.376 0 61.516 34.040 115.108 84.266 142.97v305.694c0 43.688 35.416 79.102 79.078 79.102 43.686 0 79.074-35.414 79.074-79.102v-305.758c50.258-27.866 84.266-81.39 84.266-142.906-0.002-90.256-73.084-163.376-163.34-163.376zM543.342 366.37v201.672c0 16.944-13.666 30.64-30.606 30.64-16.942 0-30.674-13.698-30.674-30.64v-201.672c-43.36-13.152-74.956-53.404-74.956-101.048 0-58.346 47.286-105.632 105.63-105.632 58.338 0 105.592 47.288 105.592 105.632 0 47.642-31.56 87.894-74.986 101.048z" />
<glyph unicode="&#xe046;" glyph-name="untitled71" d="M850.572 648.412h-674.896v-477.584h674.896v477.584zM389.166 498.87l-145.4-61.198v40.39l110.382 39.288-110.382 39.656v39.29l145.4-61.696v-35.73zM570.292 444.172h-137.156v33.136h137.156v-33.136zM75.522 824.89v-754.214h873.328v754.214h-873.328zM900.65 120.752h-775.054v577.736h775.054v-577.736z" />
<glyph unicode="&#xe047;" glyph-name="untitled72" d="M544.732 760.974c-52.324 183.918-7.786 56.646-240.948-9.73-233.094-66.348-262.66 66.562-209.942-118.62 35.25-123.894 172.142-369.104 335.52-322.6 163.44 46.494 150.622 327.044 115.37 450.95zM233.088 594.464c-29.174-3.764-52.196-19.5-57.69-37.71-2.092 3.434-3.464 7.132-3.924 11.070-2.94 22.762 23.354 44.868 58.736 49.408 35.386 4.534 66.384-10.256 69.26-32.96 0.586-3.952 0.198-7.878-0.984-11.726-9.874 16.224-36.168 25.646-65.398 21.918zM407.778 399.262c-49.056-13.996-94.182-6.672-108.112 42.154l177.244 52.39c13.866-48.81-20.080-80.578-69.132-94.544zM449.242 655.964c-26.814-12.19-44.214-34.042-44.080-53.024-2.942 2.654-5.43 5.78-6.998 9.4-9.55 20.874 9.090 49.76 41.6 64.494 32.436 14.778 66.444 9.844 75.928-11.006 1.64-3.644 2.42-7.506 2.42-11.524-14.19 12.592-42.052 13.862-68.87 1.66zM718.964 440.53c-48.594 16.86-84.5 35.764-111.506 53.402-9.228-60.754-26.69-106.088-48.208-139.948 6.148-1.83 12.622-3.138 19.556-3.772 29.37-2.586 55.206 7.88 64.488 24.42 1.306-3.716 1.834-7.668 1.44-11.618-2.026-22.85-32.442-38.816-68.020-35.628-11.25 0.974-21.648 3.824-30.546 7.91-30.802-39.498-67.428-59.652-100.064-69.622-1.832-111.804 26.49-225.228 122.5-258.584 160.564-55.662 311.058 181.406 353.24 303.112 62.726 180.686 26.164 50.88-202.88 130.328zM701.376 96.742l-175.212 58.726c16.678 47.974 62.716 54.532 110.92 37.802 48.198-16.74 80.9-48.556 64.292-96.528zM839.24 250.21c-13.798-18.334-48.002-15.834-76.522 5.608-28.45 21.432-40.414 53.678-26.678 72.004 2.416 3.158 5.42 5.712 8.956 7.656-4.312-18.528 7.98-43.59 31.458-61.302 23.614-17.702 51.080-22.518 67.628-13.306-0.848-3.892-2.418-7.51-4.842-10.66z" />
<glyph unicode="&#xe048;" glyph-name="untitled73" d="M943.36 158.93c-0.196 7.782-5.43 17.984-11.642 22.728 0 0-50.818 39.14-90.648 55.946-43.686 18.44-122.826 52.2-122.826 52.2-7.128 3.072-18.642 7.052-25.442 8.924-3.66 0.986-11.646 4.144-19.034 7.754-59.914-23.028-118.186-30.844-169.332-30.844-74.626 0.058-134.208 16.376-163.248 26.224-7.78-2.188-30.082-9.124-36.948-12.058 0 0-79.080-33.76-122.83-52.2-39.764-16.804-90.65-55.946-90.65-55.946-6.142-4.744-11.446-14.948-11.642-22.728l-1.244-104.192c-0.192-7.78 6.086-14.094 13.87-14.094h839.056c7.712 0 13.928 6.314 13.868 14.094l-1.308 104.192zM335.632 569.528c0 0 2.216-68.738 25.24-83.132 2.158-1.378 5.958-18.054 5.758-16.902 2.29-23.772 18.118-44.636 18.118-44.636 0.718-7.786-1.896-19.558-5.754-26.356l-19.494-33.814c-8.108-0.034-15.76-4.776-19.162-12.698-4.706-10.656 0.198-23.074 10.856-27.788v0c1.704-0.624 66.976-29.014 158.866-29.076h0.132c49.448 0 106.674 8.376 165.014 34.18 10.728 4.708 15.498 17.23 10.792 27.89-3.722 8.344-12.16 13.042-20.796 12.454-9.222 14.852-21.126 30.254-21.126 30.254-4.706 6.11-6.472 17.11-3.922 24.494l17.332 49.448c2.546 7.32 4.902 14.324 5.038 15.402 0.192 1.14 1.764 3.232 3.394 4.61 0 0 0 0 1.184 1.628 6.276 8.836 10.462 24.234 12.426 35.032 2.94 15.894 1.962 40.122 1.962 40.122-0.266 7.784 0.65 20.406 2.156 28.066l5.102 26.674c1.502 7.586 1.768 20.15 0.65 27.8l-20.466 100.88c-0.59 3.834-19.102 104.058-162.658 104.058-143.56 0-166.91-100.224-167.304-104.152l-15.040-131.86c-0.652-7.71 1.566-19.548 4.968-26.286 3.398-6.71 6.4-18.538 6.734-26.292zM596.064 629.86c23.286 0 42.252-18.968 42.252-42.314 0-23.38-18.966-42.278-42.252-42.278-23.416 0-70.18 18.896-70.18 42.278 0 23.344 46.764 42.314 70.18 42.314zM507.972 492.478c14.846 0 26.878-9.216 26.878-20.666 0-11.442-12.034-20.664-26.878-20.664-14.788 0-26.82 9.222-26.82 20.664 0 11.45 12.034 20.666 26.82 20.666zM416.532 629.86c23.286 0 70.054-18.968 70.054-42.314 0-23.38-46.77-42.278-70.054-42.278-23.41 0-42.376 18.896-42.376 42.278 0 23.344 18.966 42.314 42.376 42.314z" />
<glyph unicode="&#xe049;" glyph-name="untitled74" d="M534.358 174.102c-3.512 30.43-34.786 51.818-69.868 47.78-35.074-4.046-60.66-32.002-57.156-62.426 3.512-30.434 34.792-51.824 69.872-47.772 35.074 4.036 60.66 31.99 57.152 62.418zM542.63 109.744c-17.856-6.996-27.394-25.224-21.328-40.702 6.074-15.494 25.46-22.372 43.308-15.37 17.848 6.996 27.394 25.224 21.328 40.704-6.076 15.486-25.464 22.366-43.308 15.368zM886.314 595.436c-19.848 52.746-61.2 94.396-113.020 115.012-1.442 9.12-3.816 18.096-7.11 26.858-19.958 53.042-71.438 88.678-128.094 88.678-16.458 0-32.664-2.958-48.172-8.796-10.93-4.11-21.222-9.572-30.664-16.224-29.614 28.082-69.046 44.098-111.074 44.104-19.43 0-38.574-3.494-56.894-10.388-45.168-16.996-79.422-52.182-95.25-96.602-14.258-2.048-28.27-5.648-41.89-10.772-49.832-18.748-89.378-55.782-111.356-104.272-21.98-48.49-23.758-102.638-5.012-152.466 20.344-54.076 63.098-96.348 116.624-116.428 1.29-5.222 2.882-10.37 4.778-15.42 19.968-53.054 71.446-88.694 128.102-88.694 16.458 0 32.664 2.958 48.172 8.792 9.914 3.732 19.208 8.494 27.836 14.248 26.102-17.078 56.628-26.258 88.376-26.258 19.43 0 38.574 3.496 56.894 10.386 34.586 13.014 63.512 37.508 82.144 68.928 3.062-0.142 6.124-0.212 9.176-0.212 23.946 0 47.52 4.3 70.066 12.786 102.868 38.7 155.076 153.872 116.368 256.74z" />
<glyph unicode="&#xe04a;" glyph-name="untitled75" d="M803.716 545.896c0 36.83-6.866 66.73-43.722 66.73h-0.276c27.548 4.7 33.074 31.322 33.074 63.608 0 35.55-6.624 64.39-42.208 64.39h-30.57c24.114 6.826 29.124 32.708 29.124 63.708 0 36.178-6.746 65.516-42.916 65.516h-308.596c-101.63 0-184.032-82.388-184.032-184.034 0 0 0-196.254 0-196.406 0-72.080 39.872-129.252 102.546-153.67 48.788-32.074 147.042-108.458 167.976-214.612 0-41.326 0-80.088 0-80.088s137.252-14.906 137.252 114.122c0 151.958-95.666 176.652-19.504 180.354h113.6c40.13 0 47.582 32.534 47.582 72.674 0 34.852-5.648 63.918-33.398 70.98h30.346c36.858 0 43.722 29.868 43.722 66.728z" />
<glyph unicode="&#xe04b;" glyph-name="untitled76" d="M523.984 480.492c0-32.088 5.964-58.076 38.058-58.076h177.176c32.086 0 38.044 25.988 38.044 58.076v0c0 32.092-5.958 58.1-38.044 58.1h-177.176c-32.092 0-38.058-26.008-38.058-58.1v0zM491.818 342.8c0-32.070 5.976-58.1 38.034-58.1h237.108c32.094 0 38.070 26.030 38.070 58.1v0c0 32.086-5.976 58.094-38.070 58.094h-237.108c-32.058 0-38.034-26.008-38.034-58.094v0zM523.546 203c0-32.066 5.976-58.072 38.028-58.072h187.040c32.086 0 38.068 26.006 38.068 58.072v0c0 32.108-5.982 58.1-38.068 58.1h-187.040c-32.050 0-38.028-25.992-38.028-58.1v0zM554.416 60.28c0-32.070 5.976-58.078 38.042-58.078h106.542c32.068 0 38.054 26.008 38.054 58.078v0c0 32.106-5.986 58.1-38.054 58.1h-106.542c-32.066-0.002-38.042-25.996-38.042-58.1v0zM539.638 9.362c-6.516 12.442-9.42 28.148-9.42 50.918 0 22.784 2.904 38.502 9.42 50.94 2.252 4.318 5.342 8.882 9.498 13.080-22.61 2.958-34.38 16.33-40.38 27.79-6.512 12.444-9.406 28.142-9.406 50.912 0 22.788 2.894 38.496 9.406 50.946 1.782 3.392 4.080 6.952 7.002 10.37-21.534 3.378-32.882 16.39-38.73 27.562-6.514 12.444-9.418 28.152-9.418 50.924 0 22.776 2.904 38.486 9.418 50.932 5.748 10.972 16.822 23.704 37.636 27.354-2.202 2.818-4.014 5.708-5.464 8.476-6.514 12.44-9.42 28.148-9.42 50.93 0 22.786 2.906 38.492 9.42 50.936 6.788 12.958 20.95 28.412 49.888 28.412h36.122c3.718 26.918 78.228 84.486 78.228 202.206 0 129.020-137.248 114.114-137.248 114.114s0-38.76 0-80.088c-24.076-89.266-183.86-227.074-229.116-264.71-53.566-27.352-86.848-80.792-86.848-146.666 0-0.146 0-196.402 0-196.402 0-101.644 82.398-184.038 184.030-184.038h138.4c-1.14 1.712-2.146 3.428-3.018 5.102z" />
<glyph unicode="&#xe04c;" glyph-name="untitled77" d="M521.168 677.242v102.724h323.148v-102.724h-323.148zM521.168 520.59v102.724h323.148v-102.724h-323.148zM521.168 274.992v102.734h323.148v-102.734h-323.148zM521.168 118.352v102.726h323.148v-102.726h-323.148zM175.958 777.44h257.736v-257.74h-257.736zM175.958 376.822h257.736v-257.74h-257.736z" />
<glyph unicode="&#xe04d;" glyph-name="untitled78" d="M114.024 620.22h224.446v224.446h-224.446v-224.446zM397.8 620.22h224.446v224.446h-224.446v-224.446zM681.58 844.666v-224.446h224.436v224.446h-224.436zM114.024 337.728h224.446v224.452h-224.446v-224.452zM397.8 337.728h224.446v224.452h-224.446v-224.452zM681.58 337.728h224.436v224.452h-224.436v-224.452zM114.024 55.24h224.446v224.448h-224.446v-224.448zM397.8 55.24h224.446v224.448h-224.446v-224.448zM681.58 55.24h224.436v224.448h-224.436v-224.448z" />
<glyph unicode="&#xe04e;" glyph-name="untitled79" d="M175.796 777.44h257.736v-257.74h-257.736zM583.928 777.44h257.74v-257.74h-257.74zM175.796 376.822h257.736v-257.74h-257.736zM583.928 376.822h257.74v-257.74h-257.74z" />
<glyph unicode="&#xe04f;" glyph-name="untitled80" d="M946.614 579.648v27.336c-43.162 4.352-72.14 39.11-75.604 82.478h-718.854c-3.398-43.37-32.436-78.126-75.604-82.478v-19.944c13.798 0 19.948-11.182 19.948-24.958 0-13.824-6.148-24.98-19.948-24.98v-24.2c13.798 0 19.948-11.214 19.948-24.988 0-13.792-6.148-24.976-19.948-24.976v-23.808c13.798 0 19.948-11.218 19.948-24.99 0-13.792-6.148-24.978-19.948-24.978v-23.806c13.798 0 19.948-11.186 19.948-24.988 0-13.766-6.148-24.982-19.948-24.982v-27.368c43.168-4.32 72.206-39.078 75.604-82.478h718.854c3.462 43.4 32.442 78.158 75.604 82.478v19.974c-13.798 0-19.95 11.188-19.95 24.988 0 13.764 6.15 24.98 19.95 24.98v24.166c-13.798 0-19.95 11.186-19.95 24.99 0 13.792 6.15 24.98 19.95 24.98v23.804c-13.798 0-19.95 11.184-19.95 24.988 0 13.796 6.15 24.982 19.95 24.982v23.838c-13.798 0-19.95 11.186-19.95 24.98 0 13.774 6.15 24.96 19.95 24.96zM233.128 308.288h-50.164v278.492h50.164v-278.492zM549.684 317.052h-56.050v179.3h-69.524v42.282c9.74-0.254 19.16 0.466 28.252 2.166 9.026 1.7 17.268 4.696 24.46 9.080 7.26 4.354 13.404 10.046 18.378 17.176 4.968 7.096 8.304 15.894 9.876 26.46h44.606v-276.464zM840.204 308.288h-50.1v278.492h50.1v-278.492z" />
<glyph unicode="&#xe050;" glyph-name="untitled81" d="M406.894 554.138l-109.136 109.132c55.006 54.346 130.366 87.826 213.854 87.826 84.26-0.028 159.944-33.966 215.244-89.154 55.188-55.296 89.122-130.984 89.156-215.258h132.354c-0.048 241.248-195.522 436.722-436.752 436.772-119.794 0-228.554-48.406-307.448-126.59l-100.72 100.72 0.006-303.45h303.442zM727.982 232.66c-55.21-55.836-131.618-90.368-216.366-90.352-84.278 0.016-159.956 33.962-215.246 89.148-55.202 55.29-89.13 130.964-89.164 215.228h-132.334c0.034-241.228 195.502-436.694 436.746-436.748 121.080 0.016 230.866 49.46 309.958 129.124l97.994-98v296.094h-296.086l104.498-104.494z" />
<glyph unicode="&#xe051;" glyph-name="untitled82" d="M736.98 768.792l-103.27 33.844c-7.192-18.288-18.9-33.98-33.16-46.044-23.806-20.044-54.742-31.292-87.77-31.326-33.030 0.034-63.964 11.28-87.576 31.264-14.388 12.126-26.094 27.818-33.286 46.106l-103.28-33.844-204.052-483.114 81.296-82.996 128.974 299.196v-408.014h435.914v408.012l128.91-299.196 81.296 82.996-203.996 483.116z" />
<glyph unicode="&#xe052;" glyph-name="untitled83" d="M512.35 672.688c-123.878 0-224.598-100.782-224.598-224.624 0-123.84 100.72-224.604 224.598-224.604 123.81 0 224.56 100.764 224.56 224.604 0 123.842-100.75 224.624-224.56 224.624zM512.35 284.75c-90.228 0-163.312 73.122-163.312 163.312s73.084 163.278 163.312 163.278c90.156 0 163.242-73.086 163.242-163.278s-73.086-163.312-163.242-163.312zM512.28 181.708c-24.332 0-44.018-19.72-44.018-44.056v-63.538c0-24.324 19.688-44.046 44.018-44.046 24.398 0 44.084 19.722 44.084 44.046v63.538c0 24.334-19.686 44.056-44.084 44.056zM512.28 714.42c24.33 0 44.084 19.75 44.084 44.076v63.54c0 24.294-19.754 44.044-44.084 44.044-24.262 0-44.018-19.75-44.018-44.044v-63.54c0-24.326 19.756-44.076 44.018-44.076zM731.808 623.5c11.246 0 22.564 4.288 31.162 12.884l44.934 44.932c17.198 17.206 17.198 45.1 0 62.338-17.266 17.194-45.126 17.194-62.328 0l-44.932-44.946c-17.2-17.164-17.2-45.086 0-62.326 8.63-8.594 19.886-12.882 31.164-12.882zM261.66 259.7l-44.934-44.902c-17.208-17.202-17.208-45.098 0-62.292 8.598-8.602 19.884-12.952 31.132-12.952 11.278 0 22.596 4.35 31.164 12.952l44.962 44.928c17.168 17.164 17.168 45.088 0 62.266-17.2 17.238-45.128 17.238-62.324 0zM886.254 492.138h-63.502c-24.328 0-44.084-19.75-44.084-44.076 0-24.334 19.756-44.052 44.084-44.052h63.502c24.332 0 44.086 19.718 44.086 44.024 0 24.354-19.754 44.074-44.086 44.104zM245.96 448.034c0 24.356-19.72 44.074-44.088 44.106h-63.504c-24.328 0-44.046-19.75-44.046-44.076 0-24.334 19.718-44.052 44.046-44.052h63.504c24.368-0.002 44.088 19.716 44.088 44.022zM763.002 259.7c-17.228 17.27-45.124 17.27-62.326 0.032-17.23-17.208-17.23-45.1-0.032-62.296l44.932-44.928c8.634-8.602 19.884-12.952 31.194-12.952 11.25 0 22.506 4.31 31.102 12.916 17.23 17.228 17.23 45.124 0.034 62.326l-44.904 44.902zM261.66 636.384c8.594-8.596 19.88-12.884 31.128-12.884 11.312 0 22.562 4.288 31.198 12.884 17.168 17.24 17.168 45.132 0 62.326l-44.932 44.946c-17.204 17.194-45.062 17.194-62.294 0-17.24-17.238-17.24-45.132 0-62.338l44.9-44.934z" />
<glyph unicode="&#xe053;" glyph-name="untitled84" d="M292.87 569.718c12.426 34.738 27.208 62.99 46.236 84.774 18.64 21.512 44.024 37.208 72.468 37.144 28.45 0.062 53.828-15.632 72.472-37.144 19.030-21.784 33.806-50.036 46.238-84.804l69.716-196.246c9.418-26.61 19.952-44.462 27.93-53.494 8.436-9.19 11.836-8.832 12.164-8.896 0.262 0.064 3.66-0.292 12.034 8.896 8.044 9.032 18.576 26.884 27.996 53.494l69.718 196.278c19.684 55.008 52.98 103.804 93.716 143.89-77.69 97.284-197.186 159.71-331.39 159.71-234.078 0-423.878-189.796-423.878-423.938 0-75.804 20.012-146.894 54.876-208.508 32.632 34.82 62.26 82.248 79.984 132.566l69.72 196.278zM892.75 636.24c-28.912-30.346-51.802-65.604-64.292-101.182l-69.728-196.208c-12.422-34.72-27.198-62.978-46.17-84.76-18.634-21.496-44.018-37.218-72.464-37.158-28.514-0.060-53.892 15.634-72.534 37.158-19.036 21.782-33.816 50.040-46.238 84.76l-69.656 196.208c-9.484 26.684-20.014 44.536-27.996 53.568-8.372 9.154-11.77 8.832-12.098 8.888-0.32-0.056-3.724 0.266-12.098-8.888-8.046-8.986-18.574-26.884-27.996-53.568l-69.646-196.208c-23.876-66.97-61.876-126.556-105.83-171.752 77.636-86.886 190.528-141.664 316.164-141.664 234.14 0 423.94 189.83 423.94 423.95 0 67.038-15.626 130.44-43.358 186.856z" />
<glyph unicode="&#xe054;" glyph-name="untitled85" d="M120.656 106.414h782.686v-58.218h-782.686zM924.818 590.122c-0.084 16.614-141.952 257.684-141.952 257.684h-541.732c0 0-142.084-241.16-142.084-257.984 0-32.57 26.41-58.984 58.986-58.984s58.986 26.414 58.986 58.984c0-32.57 26.408-58.984 58.984-58.984 32.572 0 58.984 26.414 58.984 58.984 0-32.57 26.408-58.984 58.982-58.984 32.578 0 58.986 26.414 58.986 58.984 0-32.57 26.406-58.984 58.984-58.984s58.986 26.414 58.986 58.984c0-32.57 26.408-58.984 58.984-58.984 32.574 0 58.986 26.414 58.986 58.984 0-32.57 26.408-58.984 58.984-58.984s58.984 26.414 58.984 58.984c0-32.57 26.408-58.984 58.986-58.984 32.576 0 58.984 26.414 58.984 58.984h0.116l-0.134 0.3zM865.778 169.652v313.832c-21.776 0.012-42.042 6.602-58.914 17.886-16.89-11.3-37.182-17.89-58.984-17.89s-42.094 6.59-58.984 17.89c-16.89-11.3-37.18-17.89-58.986-17.89-21.804 0-42.094 6.59-58.984 17.89-16.89-11.3-37.182-17.89-58.986-17.89s-42.094 6.59-58.984 17.89c-16.892-11.3-37.182-17.89-58.986-17.89s-42.092 6.59-58.982 17.89c-16.89-11.3-37.18-17.89-58.984-17.89s-42.094 6.59-58.984 17.89c-16.842-11.266-37.068-17.852-58.8-17.886v-313.832h426.588v249.062h189.432v-249.062h91.538zM498.088 258.7h-252.132v161.016h252.132v-161.016z" />
<glyph unicode="&#xe055;" glyph-name="untitled86" d="M174.824 784.882h668.542v-672.294h-668.542z" />
<glyph unicode="&#xe056;" glyph-name="untitled87" d="M776.9 486.496c-25.018 13.438-56.186 4.048-69.658-20.934l-72.404-133.516v426.628c0 22.59-18.246 40.906-40.904 40.906-22.598 0-40.914-18.314-40.914-40.906v-302.724c0-8.534-6.93-15.472-15.5-15.472-8.562 0-15.498 6.938-15.498 15.472v383.882c0 22.636-18.316 40.95-40.948 40.95-22.56 0-40.938-18.314-40.938-40.95v-391.304c0-8.566-6.934-15.47-15.468-15.47-8.536 0-15.538 6.904-15.538 15.47v314.95c0 22.624-18.276 40.936-40.874 40.936-22.632 0-40.944-18.312-40.944-40.936v-314.952c0-8.566-6.93-15.504-15.5-15.504-8.568 0-15.5 6.938-15.5 15.504v208.054c0 22.626-18.31 40.94-40.944 40.94-22.562 0-40.906-18.314-40.906-40.94v-472.148c0-14.49 7.752-35.256 17.3-46.174l89.598-102.852c9.486-10.852 29.142-19.852 43.662-19.852h201.476c14.518 0 32.014 10.466 38.912 23.186l192.42 378.13c13.408 24.982 4.054 56.148-20.93 69.626z" />
<glyph unicode="&#xe057;" glyph-name="untitled88" d="M339.526 29.098l-245.148 245.152v346.688l245.148 245.154h346.692l245.158-245.154v-346.688l-245.158-245.152z" />
<glyph unicode="&#xe058;" glyph-name="untitled89" d="M307.276 652.724h409.45v-409.45h-409.45zM771.108 88.702c0-5.83 6.042-10.758 13.204-10.758h83.41c7.16 0 13.208 6.048 13.208 13.208v83.394c0 7.78-5.074 13.204-9.636 13.204-27.364 0-49.622 22.496-49.622 50.148 0 27.65 22.258 50.144 49.622 50.144 2.84 0 4.984 1.926 6.004 3.074 2.304 2.582 3.624 6.274 3.624 10.13v83.4c0 7.78-5.074 13.208-9.632 13.208-27.36 0-49.618 22.49-49.618 50.14 0 27.648 22.258 50.142 49.622 50.142 4.562 0 9.636 5.422 9.636 13.206v83.402c0 7.784-5.074 13.206-9.636 13.206-27.364 0-49.622 22.496-49.622 50.144 0 27.65 22.258 50.144 49.622 50.144 4.562 0 9.636 5.424 9.636 13.208v83.406c0 7.158-6.046 13.206-13.208 13.206h-83.41c-7.16 0-13.204-5.094-13.204-11.124 0-28.188-22.324-51.122-49.766-51.122s-49.766 22.934-49.766 51.122c0 6.030-6.042 11.124-13.2 11.124h-83.41c-7.152 0-13.208-5.094-13.208-11.124 0-28.188-22.324-51.122-49.762-51.122-27.446 0-49.762 22.934-49.77 51.12 0 6.032-6.050 11.124-13.21 11.124h-83.394c-7.156 0-13.204-5.094-13.204-11.124 0-28.188-22.324-51.122-49.77-51.122-27.442 0-49.766 22.934-49.766 51.122 0 6.030-6.042 11.124-13.204 11.124h-83.398c-7.16 0-13.208-6.046-13.208-13.206v-83.404c0-7.16 5.094-13.208 11.122-13.208 28.184 0 51.114-22.494 51.114-50.144 0-27.648-22.93-50.144-51.114-50.144-6.028 0-11.122-6.046-11.122-13.206v-83.398c0-7.16 5.094-13.208 11.122-13.208 28.188-0.004 51.114-22.498 51.114-50.142 0-27.65-22.93-50.14-51.114-50.14-6.028 0-11.122-6.050-11.122-13.208v-83.396c0-7.16 5.094-13.208 11.122-13.208 28.184 0 51.114-22.494 51.114-50.144 0-27.652-22.93-50.148-51.114-50.148-6.028 0-11.122-6.044-11.122-13.204v-83.394c0-7.16 6.046-13.208 13.208-13.208h83.402c7.16 0 13.204 4.928 13.204 10.758 0 27.982 22.324 50.748 49.766 50.748 27.446 0 49.77-22.766 49.77-50.748 0-5.83 6.046-10.758 13.204-10.758h83.402c7.16 0 13.208 4.928 13.208 10.758 0 27.982 22.32 50.748 49.766 50.748 27.438 0 49.762-22.766 49.762-50.748 0-5.83 6.054-10.758 13.208-10.758h83.41c7.156 0 13.2 4.928 13.2 10.758 0 27.982 22.324 50.748 49.766 50.748s49.76-22.768 49.76-50.75zM259.916 195.918v504.168h504.168v-504.168h-504.168z" />
<glyph unicode="&#xe059;" glyph-name="untitled90" d="M73.142 420.628v-170.488h23.672l-0.032-0.106 855.636 0.106v170.488h-879.276zM185.078 296.456h-49.804v67.314h49.804v-67.314zM307.054 296.456h-49.838v67.322h49.838v-67.322zM429.002 296.456h-49.838v67.322h49.838v-67.322zM853.074 293.672c-21.684 0-39.304 17.594-39.304 39.29 0 21.714 17.622 39.34 39.304 39.34 21.714 0 39.308-17.624 39.308-39.34 0-21.696-17.592-39.29-39.308-39.29zM774.656 876.074h-523.912l-153.96-394.158h831.964l-154.092 394.158zM73.142 18.226h879.278v170.508h-879.278v-170.508zM853.074 140.378c21.714 0 39.308-17.586 39.308-39.27 0-21.736-17.594-39.324-39.308-39.324-21.684 0-39.304 17.588-39.304 39.324 0 21.684 17.62 39.27 39.304 39.27zM379.164 131.898h49.838v-67.368h-49.838v67.368zM257.216 131.898h49.838v-67.368h-49.838v67.368zM135.274 131.898h49.804v-67.368h-49.804v67.368z" />
<glyph unicode="&#xe05a;" glyph-name="untitled91" d="M783.488 734.908c-5.698 14.49-22.962 26.288-38.594 26.288h-467.37c-15.504 0-32.898-11.796-38.52-26.288l-155.14-397.062h854.82l-155.196 397.062zM71.7 276.532v-112.992c0-15.53 12.688-28.254 28.258-28.254h261.022v48.11h49.9v-48.11h40.158v48.11h49.906v-48.11h40.148v48.11h49.84v-48.11h40.164v48.11h49.904v-48.11h241.664c15.504 0 28.25 12.724 28.25 28.254v112.992h-879.214z" />
<glyph unicode="&#xe05b;" glyph-name="untitled92" d="M333.584 123.374c-56.306 0-102.112 45.806-102.112 102.11v445.034c0 9.296-7.566 16.864-16.864 16.864-9.3 0-16.868-7.566-16.868-16.864v-252.6h-85.242v252.6c0 56.298 45.808 102.11 102.114 102.11 56.3 0 102.108-45.81 102.108-102.11v-445.036c0-9.298 7.564-16.866 16.868-16.866 9.296 0 16.866 7.566 16.866 16.866v400.656c0 56.302 45.804 102.11 102.11 102.11 56.302 0 102.11-45.806 102.11-102.11v-353.848c0-9.298 7.566-16.866 16.866-16.866s16.866 7.566 16.866 16.866v308.64h-0.090c0 56.3 45.806 102.112 102.11 102.112s102.11-45.81 102.11-102.112v-267.522c0-9.302 7.566-16.864 16.866-16.864s16.866 7.56 16.866 16.864v131.404h85.244v-131.404c0-56.304-45.806-102.11-102.11-102.11s-102.112 45.804-102.112 102.11v267.524c0 9.298-7.562 16.868-16.864 16.868-8.708 0-15.894-6.638-16.776-15.118v-310.39c0-56.3-45.806-102.11-102.11-102.11-55.49 0-100.784 44.494-102.080 99.678h-0.030v356.28c0 9.302-7.564 16.87-16.866 16.87s-16.868-7.566-16.868-16.87v-400.656c-0.004-56.304-45.808-102.11-102.112-102.11v0z" />
<glyph unicode="&#xe05c;" glyph-name="untitled93" d="M505.11 236.356c-87.382 0-130.050-43.472-200.746-115.496-3.586-3.652-7.278-7.402-10.988-11.18h423.468c-3.808 3.876-7.594 7.718-11.274 11.46-70.528 71.848-113.098 115.216-200.46 115.216zM627.020 786.32c-69.128 0-125.172-56.042-125.172-125.184v-1.214c0 48.262-39.124 87.386-87.39 87.386h-72.324v-68.524c0-48.262 39.122-87.386 87.378-87.386h37.71v-310.172c11.882 1.636 24.464 2.484 37.886 2.484 13.426 0 26.008-0.848 37.886-2.484v281.754h62.454c69.132 0 125.176 56.046 125.176 125.18v98.16h-103.604z" />
<glyph unicode="&#xe05d;" glyph-name="untitled94" d="M800.848 279.768v83.058c-0.262 26.226-6.472 48.822-15.372 70.77-9.218 21.842-20.862 42.248-39.236 60.922l-150.494 150.522c-0.984 0.652-7.068 9.156-10.598 18.216-3.928 8.864-5.63 19.102-5.362 20.35v160.78h-131.792v-160.78c0.262-1.248-1.436-11.486-5.296-20.35-3.532-9.060-9.614-17.564-10.662-18.216l-150.558-150.522c-18.308-18.674-29.888-39.114-39.174-60.922-8.894-21.948-15.108-44.542-15.37-70.77v-83.058h-114l179.928-228.038 179.924 228.038h-114v83.058c-0.26 1.208 1.376 11.52 5.298 20.338 3.598 9.090 9.612 17.498 10.664 18.184l139.172 139.176 139.184-139.176c0.978-0.686 7.124-9.094 10.66-18.184 3.854-8.926 5.554-19.13 5.292-20.338v-83.058h-117.334l179.932-228.038 179.852 228.038h-110.658z" />
<glyph unicode="&#xe05e;" glyph-name="untitled95" d="M911.708 448.11l-163.97 129.374v-78.196h-315.508l174.232 170.148c2.816 3.010 12.758 9.716 23.422 13.868 10.458 4.448 22.296 6.666 26.354 6.476h91.498v-78.256l163.97 129.338-163.97 129.326v-78.112h-91.498c-23.286-0.266-44.472-5.868-64.944-14.068-20.408-8.442-39.508-19.226-56.314-35.382l-228.388-223.066c-2.812-3.074-12.752-9.642-23.414-13.824-10.332-4.384-21.908-6.542-26.162-6.45h-146.178v-102.324h149.906c4.118 0.198 15.89-2.028 26.418-6.44 10.598-4.148 20.542-10.826 23.356-13.902l228.454-223.016c16.808-16.164 35.908-26.88 56.312-35.384 20.47-8.25 41.662-13.836 64.946-13.994h87.508v-78.27l163.97 129.378-163.97 129.336v-78.226h-87.508c-4.124-0.126-15.892 2.094-26.358 6.476-10.66 4.12-20.604 10.862-23.412 13.87l-174.304 170.172h311.582v-78.218l163.97 129.366z" />
<glyph unicode="&#xe05f;" glyph-name="untitled96" d="M511.58 756.162c-240.56 0-435.46-194.966-435.53-435.518 0.13-35.458 1.704-64.322 9.422-90.328 5.688-19.366 16.024-37.414 31.458-50.988 23.412-20.368 53.368-28.934 90.516-33.71 37.352-4.742 83.788-5.618 144.414-5.618 45 0 97.65 0.454 159.72 0.454 62.062 0 114.712-0.454 159.712-0.454 53.822 0 96.532 0.656 131.586 4.178 26.292 2.624 48.464 6.682 68.054 14.266 14.714 5.69 28.122 13.666 38.978 24.432 16.616 16.052 26.098 37.3 30.944 59.878 4.896 22.792 6.14 47.998 6.206 77.89-0.064 240.552-195 435.518-435.48 435.518zM551.992 667.676c22.172-2.558 43.756-7.336 64.426-14l-14.198-43.964c-17.854 5.764-36.494 9.89-55.72 12.112l5.492 45.852zM218.7 328.852h-46.242c0 22.402 2.222 44.372 6.28 65.632l45.388-8.836c-3.594-18.374-5.426-37.344-5.426-56.796zM244.208 449.090l-42.19 18.768c9.026 20.284 19.948 39.514 32.632 57.428l37.746-26.622c-10.926-15.562-20.406-32.104-28.188-49.574zM316.608 548.374l-30.936 34.336c16.35 14.65 34.078 27.866 53.108 39.182l23.742-39.632c-16.42-9.818-31.788-21.128-45.914-33.886zM408.888 653.676c20.672 6.664 42.184 11.442 64.424 14l5.426-45.854c-19.164-2.22-37.798-6.348-55.72-12.112l-14.13 43.966zM569.124 237.378l-109.026-19.418-27.726 107.26 281.688 288.104-144.936-375.946zM752.846 498.664l37.738 26.622c12.688-17.914 23.68-37.144 32.704-57.428v0l-42.184-18.768c-7.85 17.47-17.266 34.012-28.258 49.574zM806.61 328.852c0 19.454-1.898 38.422-5.496 56.796l45.39 8.836c4.118-21.262 6.282-43.23 6.282-65.632h-46.176zM486.652 259.39c19.032-12.198 44.28-6.734 56.512 12.266 12.166 18.958 6.604 44.248-12.358 56.446-18.968 12.23-44.214 6.664-56.45-12.368-12.16-18.862-6.732-44.216 12.296-56.344z" />
<glyph unicode="&#xe060;" glyph-name="untitled97" d="M511.998 498.248c-90.984 0-165.004-74.016-165.004-165.002 0-90.982 74.020-165.004 165.004-165.004s165.006 74.022 165.006 165.004c0 90.986-74.022 165.002-165.006 165.002zM511.998 263.644c-38.434 0-69.6 31.162-69.6 69.602 0 38.444 31.166 69.604 69.6 69.604 38.44 0 69.604-31.16 69.604-69.604 0-38.44-31.164-69.602-69.604-69.602zM761.818 861.492h-499.644c-22.21 0-40.23-18.014-40.23-40.234v-786.75h580.114v786.75c-0.002 22.22-18.022 40.234-40.24 40.234zM511.998 744.988c31.302 0 56.684-25.376 56.684-56.678 0-31.306-25.38-56.682-56.684-56.682-31.3 0-56.676 25.376-56.676 56.682 0 31.304 25.376 56.678 56.676 56.678zM511.998 110.086c-123.050 0-223.164 100.112-223.164 223.16s100.114 223.164 223.164 223.164c123.054 0 223.16-100.116 223.16-223.164s-100.106-223.16-223.16-223.16z" />
<glyph unicode="&#xe061;" glyph-name="untitled98" d="M87.204 559.486v-226.192h101.678l227.128-168.58v563.36l-227.128-168.588h-101.678zM535.438 653.496c-13.34 13.342-34.976 13.342-48.316 0-13.342-13.342-13.342-34.96 0.010-48.304h-0.010c43.882-43.91 65.726-101.11 65.772-158.624-0.044-57.666-21.838-115.006-65.772-158.97-13.342-13.354-13.342-34.984 0.010-48.326 6.67-6.664 15.412-9.994 24.154-9.994s17.492 3.33 24.162 10.006c57.158 57.166 85.806 132.414 85.77 207.286 0.036 74.814-28.718 149.884-85.78 206.926zM643.316 761.69c-13.344 13.336-34.972 13.336-48.318 0-13.338-13.348-13.338-34.972 0.010-48.316l-0.010 0.012c73.67-73.704 110.548-169.926 110.582-266.446-0.044-96.972-36.698-193.61-110.582-267.536-13.346-13.342-13.338-34.978 0.010-48.314 6.672-6.668 15.41-10.008 24.148-10.008 8.75 0 17.496 3.34 24.17 10.008 87.144 87.156 130.616 201.72 130.572 315.85 0.036 113.872-43.758 227.946-130.582 314.75zM756.716 871.894c-13.358 13.342-34.986 13.342-48.322 0-13.338-13.342-13.338-34.966 0-48.31 104.1-104.142 156.19-240.256 156.222-376.682-0.034-136.834-51.908-273.34-156.222-377.702-13.348-13.342-13.338-34.974 0-48.31 6.672-6.674 15.41-10.012 24.158-10.012 8.744 0 17.484 3.338 24.164 10.012 117.564 117.562 176.272 271.984 176.228 426.012 0.044 153.748-58.96 307.724-176.228 424.992z" />
<glyph unicode="&#xe062;" glyph-name="untitled99" d="M510.97 784.208c0 0-329.7-185.802-329.7-396.6 0-92.424 74.532-167.312 166.514-167.312 57.656 0 108.444 16.164 138.266 52.266-19.786-73.062-45.23-160.238-53.958-160.238h161.938c-8.728 0-34.14 87.176-53.958 160.16 29.856-36.024 80.612-52.188 138.296-52.188 91.922 0 166.484 74.888 166.484 167.312 0.004 210.798-333.882 396.6-333.882 396.6z" />
<glyph unicode="&#xe063;" glyph-name="untitled100" d="M922.888 425.694c0 12.264-13.29 22.302-29.52 22.302-16.238 0-35.376 6.988-42.528 15.53s-13.008 31.804-13.008 51.692c0 19.896-16.058 36.166-35.688 36.166s-35.692-16.27-35.692-36.166c0-19.886-9.852-36.168-21.894-36.168-12.040 0-21.89 17.078-21.89 37.946v49.648c0 20.864-16.062 37.934-35.696 37.934-19.624 0-35.688-17.070-35.688-37.934v-49.648c0-20.868-9.852-37.946-21.89-37.946s-21.89 17.078-21.89 37.946v125.63c0 20.868-16.066 37.94-35.696 37.94-19.624 0-35.688-17.072-35.688-37.94v-125.63c0-20.868-9.856-37.946-21.894-37.946-12.042 0-21.89 17.078-21.89 37.946v49.648c0 20.864-16.062 37.934-35.692 37.934-19.632 0-35.692-17.070-35.692-37.934v-49.648c0-20.868-9.856-37.946-21.894-37.946s-21.89 17.078-21.89 37.946v196.484c0 20.864-16.058 37.938-35.692 37.938-19.628 0-35.688-17.074-35.688-37.938v-196.484c0-20.868-9.856-37.946-21.898-37.946-12.040 0-21.89 16.282-21.89 36.168 0 19.896-16.062 36.166-35.692 36.166-19.632 0-35.688-16.27-35.688-36.166 0-19.886-5.036-43.148-11.184-51.692-6.148-8.542-26.286-15.53-44.754-15.53s-33.574-10.040-33.574-22.302c0-12.272 15.106-22.31 33.574-22.31s38.606-6.986 44.754-15.528c6.148-8.542 11.184-31.804 11.184-51.692 0-19.894 16.054-36.168 35.688-36.168 19.628 0 35.692 16.274 35.692 36.168 0 19.886 9.852 36.166 21.89 36.166 12.042 0 21.898-17.074 21.898-37.942v-151.866c0-20.864 16.058-37.94 35.688-37.94 19.632 0 35.692 17.076 35.692 37.94v151.866c0 20.868 9.852 37.942 21.89 37.942s21.894-17.074 21.894-37.942v-49.648c0-20.862 16.058-37.938 35.692-37.938 19.628 0 35.692 17.076 35.692 37.938v49.648c0 20.868 9.848 37.942 21.89 37.942 12.040 0 21.894-17.074 21.894-37.942v-125.632c0-20.864 16.062-37.936 35.688-37.936 19.628 0 35.696 17.072 35.696 37.936v125.632c0 20.868 9.852 37.942 21.89 37.942s21.89-17.074 21.89-37.942v-49.648c0-20.862 16.062-37.938 35.688-37.938 19.632 0 35.696 17.076 35.696 37.938v49.648c0 20.868 9.852 37.942 21.89 37.942 12.042 0 21.894-16.28 21.894-36.166 0-19.894 16.062-36.168 35.692-36.168s35.688 16.274 35.688 36.168c0 19.886 5.856 43.148 13.008 51.692 7.152 8.542 26.29 15.528 42.528 15.528 16.232-0.002 29.52 10.038 29.52 22.31z" />
<glyph unicode="&#xe064;" glyph-name="untitled101" d="M752.212 688.336h-482.188v-89.538h482.188v89.538zM270.024 206.14h482.188v89.524h-482.188v-89.524zM752.212 433.164h-482.188v-109.346h482.188v109.346zM752.212 570.656h-482.188v-109.352h482.188v109.352zM244.934 156.436l-90.25-90.24h712.884l-90.236 90.24h-532.398zM801.94 713.432v-532.4l90.24-90.244v712.9l-90.24-90.256zM777.33 738.042l90.236 90.242h-712.878l90.242-90.242h532.4zM220.32 713.442l-90.242 90.24v-712.888l90.242 90.242v532.406z" />
<glyph unicode="&#xe065;" glyph-name="untitled102" d="M632.148 301.936v0c1.734 0 3.464-0.128 5.164-0.158l-319.624 406.902c-21.452 27.274-53.698 41.594-85.678 41.534-23.348 0.060-47.35-7.584-67.17-23.216l-100.034-78.624 63.214-80.414 100 78.586c1.244 0.95 2.358 1.308 3.99 1.376 2.224-0.066 3.99-0.876 5.202-2.418l298.336-379.73c25.994 22.556 59.91 36.13 96.6 36.162zM894.42 473.424l-224.602-176.36c36.302-9.548 66.618-32.344 86.172-62.434l201.604 158.348-63.174 80.446zM643.92 251.308c-3.956 0.528-7.88 0.748-11.772 0.748-48.726 0-90.842-36.456-96.794-86.028-6.412-53.502 31.748-102.1 85.282-108.574 3.958-0.458 7.918-0.722 11.772-0.722 48.73 0 90.852 36.428 96.868 86.012 6.412 53.574-31.788 102.152-85.356 108.564zM922.672 577.476l-206.252 262.568-262.56-206.252 206.278-262.562 262.534 206.246zM696.504 707.562l75.118-95.614-45.062-35.39-75.118 95.59 45.062 35.414z" />
<glyph unicode="&#xe066;" glyph-name="untitled103" d="M769.586 474.988c-48.66 0-82.96 13.136-82.96 13.136l-287.216 164.492-96.342-76.818-180.316 15.338c-51.308 0-53.534-91.414-53.534-91.414v-158.444h871.89c0 0.002 13.768 133.71-171.522 133.71zM440.12 573.678c-2.844-11.46-14.488-18.474-25.998-15.6-11.476 2.874-18.478 14.52-15.598 26.034 2.846 11.472 14.488 18.472 26 15.584 11.476-2.864 18.472-14.492 15.596-26.018zM520.762 528.544c-2.878-11.51-14.552-18.504-26.028-15.632-11.478 2.894-18.478 14.504-15.566 26.036 2.812 11.458 14.484 18.476 25.996 15.58 11.512-2.862 18.472-14.5 15.598-25.984zM598.2 485.164c-2.878-11.492-14.524-18.492-26.032-15.61-11.476 2.876-18.512 14.504-15.594 25.994 2.874 11.514 14.514 18.494 25.994 15.63 11.514-2.89 18.51-14.5 15.632-26.014zM69.218 305.018v-61.288h875.586v61.288h-875.586z" />
<glyph unicode="&#xe067;" glyph-name="untitled104" d="M398.34 519.926c0 23.986 7.2 46.778 20.606 66.024h-332.184v-131.762h332.050c-13.272 19.214-20.472 41.888-20.472 65.738zM744.526 585.95l-131.726-131.762h325.904v131.762h-194.178zM229.668 18.222h566.128l81.688 362.052h-729.44l81.624-362.052zM514.372 454.188c16.936 0 33.876 6.45 46.824 19.338l285.554 285.546c25.898 25.87 25.836 67.776 0 93.642-25.836 25.838-67.762 25.838-93.66 0l-285.55-285.562c-25.836-25.836-25.836-67.778 0-93.574 12.946-12.94 29.888-19.39 46.832-19.39z" />
<glyph unicode="&#xe068;" glyph-name="untitled105" d="M817.982 159.992c-35.544 0-64.366-28.81-64.366-64.36 0-35.554 28.82-64.374 64.366-64.374 35.548 0 64.37 28.818 64.37 64.374 0 35.55-28.82 64.36-64.37 64.36zM311.7 159.992c-35.548 0-64.36-28.81-64.36-64.36 0-35.554 28.812-64.374 64.36-64.374 35.552 0 64.372 28.818 64.372 64.374 0 35.55-28.82 64.36-64.372 64.36zM773.432 416.91l146.842 146.834v200.87h-630.44l-36.716 100.196h-106.124c-26.272 0-47.578-21.294-47.578-47.58 0-26.266 21.306-47.568 47.578-47.568h39.652l128.098-349.588-68.21-211.442h618.068c26.266 0 47.562 21.298 47.562 47.568 0 26.286-21.296 47.582-47.562 47.582h-487.394l36.494 113.124h359.73z" />
</font>
</defs>
</svg>
