<svg viewBox="0 0 334.27 436.53" xmlns="http://www.w3.org/2000/svg"><path d="m317.68 208.83h-22.084l-2e-3 -73.603c0-36.675-13.921-70.311-36.917-94.892-22.91-24.584-55.547-40.367-91.539-40.336-36.003-0.031-68.643 15.752-91.55 40.336-23.001 24.582-36.918 58.217-36.925 94.892v73.603h-22.082c-9.16 0-16.585 7.421-16.585 16.583v194.53c0 9.158 7.425 16.585 16.585 16.585h301.1c9.162 0 16.586-7.427 16.586-16.585v-194.53c0-9.161-7.424-16.583-16.586-16.583zm-218.01-73.602c0-21.167 8.012-39.893 20.468-53.219 12.552-13.316 28.896-20.982 47.003-21.007 18.095 0.025 34.438 7.685 46.987 21.007 12.455 13.326 20.467 32.052 20.467 53.219v73.603h-134.92z" fill="#9d261d"/></svg>
